<?xml version="1.0" encoding="UTF-8" standalone="no"?>
<!-- Created with Inkscape (http://www.inkscape.org/) -->

<svg
   xmlns:dc="http://purl.org/dc/elements/1.1/"
   xmlns:cc="http://creativecommons.org/ns#"
   xmlns:rdf="http://www.w3.org/1999/02/22-rdf-syntax-ns#"
   xmlns:svg="http://www.w3.org/2000/svg"
   xmlns="http://www.w3.org/2000/svg"
   xmlns:sodipodi="http://sodipodi.sourceforge.net/DTD/sodipodi-0.dtd"
   xmlns:inkscape="http://www.inkscape.org/namespaces/inkscape"
   version="1.1"
   id="svg872"
   width="532"
   height="532"
   viewBox="0 0 532 532"
   sodipodi:docname="BlueFolder.svg"
   inkscape:version="0.92.4 (5da689c313, 2019-01-14)">
  <metadata
     id="metadata878">
    <rdf:RDF>
      <cc:Work
         rdf:about="">
        <dc:format>image/svg+xml</dc:format>
        <dc:type
           rdf:resource="http://purl.org/dc/dcmitype/StillImage" />
        <dc:title></dc:title>
      </cc:Work>
    </rdf:RDF>
  </metadata>
  <defs
     id="defs876" />
  <sodipodi:namedview
     pagecolor="#ffffff"
     bordercolor="#666666"
     borderopacity="1"
     objecttolerance="10"
     gridtolerance="10"
     guidetolerance="10"
     inkscape:pageopacity="0"
     inkscape:pageshadow="2"
     inkscape:window-width="1920"
     inkscape:window-height="1017"
     id="namedview874"
     showgrid="false"
     inkscape:zoom="1.16"
     inkscape:cx="125.91379"
     inkscape:cy="233.08464"
     inkscape:window-x="-8"
     inkscape:window-y="-8"
     inkscape:window-maximized="1"
     inkscape:current-layer="svg872" />
  <path
     style="fill:#000000;stroke:none;stroke-width:1px;stroke-linecap:butt;stroke-linejoin:miter;stroke-opacity:1;fill-opacity:1"
     d="M 173.27586,93.206897 C 178.44828,93.206897 209.48276,85.448276 209.48276,85.448276 209.48276,85.448276 228.44828,87.172414 228.44828,91.482759 228.44828,95.793103 227.58621,113.03448 227.58621,113.03448 L 193.10345,123.37931 171.55172,104.41379 Z"
     id="path882"
     inkscape:connector-curvature="0" />
  <path
     style="fill:#000000;stroke:none;stroke-width:1px;stroke-linecap:butt;stroke-linejoin:miter;stroke-opacity:1;fill-opacity:1"
     d="M 57.758621,238.03448 81.896552,262.17241 101.72414,263.03448 181.03448,219.06897 116.37931,307.86207 45.689655,377.68966 11.206897,391.48276 41.37931,385.44828 106.89655,340.62069 168.10345,264.75862 174.13793,276.82759 162.06897,366.48276 159.48276,414.75862 V 449.24138 L 179.31034,489.75862 186.2069,488.03448 190.51724,463.89655 182.75862,383.72414 187.06897,316.48276 188.7931,246.65517 206.03448,255.27586 234.48276,308.72414 C 234.48276,308.72414 239.65517,314.75862 243.10345,313.89655 246.55172,313.03448 255.17241,295.7931 255.17241,295.7931 L 248.27586,275.10345 233.62069,257.86207 187.06897,238.03448 190.51724,224.24138 228.44828,183.72414 224.13793,167.34483 214.65517,158.72414 202.58621,174.24138 198.27586,193.2069 141.37931,214.75862 83.62069,238.89655 Z"
     id="path888"
     inkscape:connector-curvature="0" />
  <path
     style="fill:#000000;stroke:none;stroke-width:1px;stroke-linecap:butt;stroke-linejoin:miter;stroke-opacity:1;fill-opacity:1"
     d="M 254.31034,170.7931 C 251.72414,174.24138 250,182.86207 250,182.86207 L 277.58621,230.27586 287.93103,265.62069 263.7931,271.65517 265.51724,286.31034 279.31034,294.06897 292.24138,287.17241 304.31034,294.06897 309.48276,280.27586 337.93103,269.06897 343.10345,275.10345 351.72414,258.72414 375,260.44828 381.89655,267.34483 390.51724,252.68966 428.44828,255.27586 422.41379,265.62069 426.72414,287.17241 433.62069,294.06897 446.55172,250.96552 475.86207,170.7931 490.51724,150.96552 471.55172,119.93103 456.89655,115.62069 423.27586,132.86207 371.55172,142.34483 314.65517,156.13793 293.10345,153.55172 322.41379,182 338.7931,184.58621 346.55172,169.06897 393.96552,152.68966 428.44828,140.62069 458.62069,142.34483 459.48276,165.62069 436.2069,235.44828 377.58621,243.2069 319.82759,259.58621 302.58621,260.44828 294.82759,203.55172 Z"
     id="path890"
     inkscape:connector-curvature="0" />
  <path
     style="fill:#000000;stroke:none;stroke-width:1px;stroke-linecap:butt;stroke-linejoin:miter;stroke-opacity:1;fill-opacity:1"
     d="M 300.86207,100.10345 334.48276,111.31034 348.27586,128.55173 346.31272,195.82227 351.72414,258.72414 337.93103,269.06897 340.51724,236.31034 323.27586,233.72414 307.75862,212.17241 334.48276,211.31034 338.7931,184.58621 330.17241,135.44828 297.41379,111.31034 Z"
     id="path892"
     inkscape:connector-curvature="0"
     sodipodi:nodetypes="cccccccccccccc" />
  <path
     style="fill:none;stroke:#000000;stroke-width:1px;stroke-linecap:butt;stroke-linejoin:miter;stroke-opacity:1"
     d="M 346.31272,195.82227 348.27586,207.86207 Z"
     id="path894"
     inkscape:connector-curvature="0" />
  <path
     style="fill:#000000;stroke:none;stroke-width:1px;stroke-linecap:butt;stroke-linejoin:miter;stroke-opacity:1;fill-opacity:1"
     d="M 348.27586,207.86207 392.24138,189.75862 400.86207,103.55172 398.27586,87.172414 385.34483,81.137931 391.37931,70.793103 405.17241,71.655172 417.24138,88.034483 424.13793,101.82759 418.10345,121.65517 403.44828,152.68966 400.86207,187.17241 425,179.41379 439.65517,185.44828 431.89655,198.37931 398.27586,206.13793 393.10345,241.48276 377.58621,243.2069 387.93103,210.44828 348.27586,229.41379 Z"
     id="path896"
     inkscape:connector-curvature="0" />
  <path
     style="fill:#000000;stroke:none;stroke-width:1px;stroke-linecap:butt;stroke-linejoin:miter;stroke-opacity:1;fill-opacity:1"
     d="M 280.17241,313.89655 303.44828,329.41379 338.7931,305.27586 410.34483,293.2069 409.48276,282.86207 393.10345,279.41379 C 388.7931,280.27586 344.82759,294.93103 344.82759,294.93103 Z"
     id="path898"
     inkscape:connector-curvature="0" />
  <path
     style="fill:#000000;stroke:none;stroke-width:1px;stroke-linecap:butt;stroke-linejoin:miter;stroke-opacity:1;fill-opacity:1"
     d="M 283.62069,348.37931 300,377.68966 309.48276,396.65517 303.44828,421.65517 323.27586,447.51724 250.86207,464.75862 219.82759,460.44828 212.06897,475.96552 C 212.06897,475.96552 225.86207,497.51724 229.31034,499.24138 232.75862,500.96552 239.65517,501.82759 239.65517,501.82759 L 255.17241,487.17241 C 255.17241,487.17241 301.72414,463.89655 305.17241,463.89655 308.62069,463.89655 344.82759,452.68966 344.82759,452.68966 L 456.03448,444.93103 C 456.03448,444.93103 475,443.2069 483.62069,452.68966 492.24138,462.17241 503.44828,474.24138 508.62069,475.96552 513.7931,477.68966 518.10345,479.41379 518.10345,479.41379 L 526.72414,450.10345 493.96552,434.58621 475,424.24138 450,437.17241 395.68966,438.89655 418.10345,416.48276 406.89655,382.86207 414.65517,369.93103 398.27586,364.75862 C 398.27586,364.75862 393.10345,383.72414 393.96552,387.17241 394.82759,390.62069 399.13793,404.41379 399.13793,404.41379 L 375.86207,438.03448 C 375.86207,438.03448 342.24138,450.96552 341.37931,444.06897 340.51724,437.17241 340.51724,428.55172 340.51724,428.55172 L 325,413.89655 330.17241,382.86207 322.41379,363.89655 309.48276,358.72414 Z"
     id="path900"
     inkscape:connector-curvature="0" />
  <path
     style="fill:#000000;stroke:none;stroke-width:1px;stroke-linecap:butt;stroke-linejoin:miter;stroke-opacity:1;fill-opacity:1"
     d="M 326.72414,343.2069 C 326.72414,343.2069 342.24138,354.41379 349.13793,352.68966 356.03448,350.96552 375,335.44828 375,335.44828 L 400.86207,338.03448 398.27586,364.75862 330.17241,382.86207 328.44828,401.82759 393.10345,382 406.03448,369.06896 427.58621,343.2069 402.58621,327.68966 H 356.89655 L 344.82759,324.24138 338.7931,335.44828 Z"
     id="path902"
     inkscape:connector-curvature="0"
     sodipodi:nodetypes="ccccccccccccccc" />
</svg>
