<?xml version="1.0" encoding="UTF-8" standalone="no"?>
<!-- Created with Inkscape (http://www.inkscape.org/) -->

<svg
 xmlns:dc="http://purl.org/dc/elements/1.1/"
 xmlns:cc="http://creativecommons.org/ns#"
 xmlns:rdf="http://www.w3.org/1999/02/22-rdf-syntax-ns#"
 xmlns:svg="http://www.w3.org/2000/svg"
 xmlns="http://www.w3.org/2000/svg"
 xmlns:sodipodi="http://sodipodi.sourceforge.net/DTD/sodipodi-0.dtd"
 xmlns:inkscape="http://www.inkscape.org/namespaces/inkscape"
 version="1.1"
 id="svg10"
 width="575"
 height="575"
 viewBox="0 0 575 575"
 sodipodi:docname="U+4E0A.svg"
 inkscape:version="0.92.4 (5da689c313, 2019-01-14)">
<metadata
 id="metadata16">
<rdf:RDF>
<cc:Work
 rdf:about="">
<dc:format>image/svg+xml</dc:format>
<dc:type
 rdf:resource="http://purl.org/dc/dcmitype/StillImage" />
<dc:title></dc:title>
</cc:Work>
</rdf:RDF>
</metadata>
<defs
 id="defs14" />
<sodipodi:namedview
 pagecolor="#ffffff"
 bordercolor="#666666"
 borderopacity="1"
 objecttolerance="10"
 gridtolerance="10"
 guidetolerance="10"
 inkscape:pageopacity="0"
 inkscape:pageshadow="2"
 inkscape:window-width="1920"
 inkscape:window-height="1017"
 id="namedview12"
 showgrid="false"
 inkscape:zoom="1.0824912"
 inkscape:cx="362.36964"
 inkscape:cy="213.41059"
 inkscape:window-x="-8"
 inkscape:window-y="-8"
 inkscape:window-maximized="1"
 inkscape:current-layer="svg10" />
<path
 style="fill:#000000;stroke:none;stroke-width:1px;stroke-linecap:butt;stroke-linejoin:miter;stroke-opacity:1;fill-opacity:1"
 d="M 225.9727,130.9266 C 225.9727,130.9266 246.81035,148.52284 249.5887,148.52284 252.36705,148.52284 268.57411,154.07954 268.57411,154.07954 268.57411,154.07954 274.59387,186.49366 275.05693,188.34589 275.51999,190.19813 273.66776,241.1346 274.13082,245.30213 274.59387,249.46966 271.35246,300.40613 271.35246,300.40613 L 162.53364,314.76095 C 162.53364,314.76095 91.685644,327.7266 87.055056,329.57883 82.424468,331.43107 35.655528,340.22918 35.655528,340.22918 L 22.689882,336.52471 21.763764,342.54448 C 21.763764,342.54448 46.305881,363.38212 48.158116,364.30824 50.010352,365.23436 70.384939,377.73695 73.163292,377.73695 75.941645,377.73695 118.54306,348.56424 124.09976,348.56424 129.65647,348.56424 211.61788,324.02212 219.48988,324.02212 227.36188,324.02212 338.49599,301.7953 342.20046,301.7953 345.90493,301.7953 451.9454,306.42589 451.9454,306.42589 451.9454,306.42589 533.44375,337.45083 539.46351,338.84001 545.48328,340.22918 559.37504,349.0273 561.69034,343.93365 564.00563,338.84001 565.39481,318.00236 565.39481,318.00236 565.39481,318.00236 539.46351,299.48001 536.2221,296.70166 532.98069,293.9233 507.97551,279.56848 507.97551,279.56848 507.97551,279.56848 502.41881,272.6226 497.32516,275.86401 492.23152,279.10542 483.4334,284.66213 483.4334,284.66213 483.4334,284.66213 440.36893,282.34683 438.51669,282.80989 436.66446,283.27295 299.13599,296.70166 299.13599,296.70166 L 303.30352,246.22824 302.3774,148.98589 289.41176,135.09413 265.79576,118.88707 251.44093,116.57178 Z"
 id="path22"
 inkscape:connector-curvature="0" />
<path
 style="fill:#000000;stroke:none;stroke-width:1px;stroke-linecap:butt;stroke-linejoin:miter;stroke-opacity:1;fill-opacity:1"
 d="M 313.95387,155.93178 C 312.5647,158.24707 307.93411,169.36048 313.95387,172.60189 319.97364,175.84331 339.88517,198.07013 343.58964,198.53319 347.29411,198.99625 388.04328,173.99107 391.28469,171.67578 394.52611,169.36048 415.82681,145.28142 415.82681,145.28142 L 373.68846,154.5426 333.8654,160.09931 Z"
 id="path24"
 inkscape:connector-curvature="0" />
</svg>
