<?xml version="1.0" encoding="UTF-8" standalone="no"?>
<!-- Created with Inkscape (http://www.inkscape.org/) -->

<svg
   xmlns:dc="http://purl.org/dc/elements/1.1/"
   xmlns:cc="http://creativecommons.org/ns#"
   xmlns:rdf="http://www.w3.org/1999/02/22-rdf-syntax-ns#"
   xmlns:svg="http://www.w3.org/2000/svg"
   xmlns="http://www.w3.org/2000/svg"
   xmlns:sodipodi="http://sodipodi.sourceforge.net/DTD/sodipodi-0.dtd"
   xmlns:inkscape="http://www.inkscape.org/namespaces/inkscape"
   version="1.1"
   id="svg842"
   width="550"
   height="550"
   viewBox="0 0 550 550"
   sodipodi:docname="U+5085.svg"
   inkscape:version="0.92.4 (5da689c313, 2019-01-14)">
  <metadata
     id="metadata848">
    <rdf:RDF>
      <cc:Work
         rdf:about="">
        <dc:format>image/svg+xml</dc:format>
        <dc:type
           rdf:resource="http://purl.org/dc/dcmitype/StillImage" />
        <dc:title></dc:title>
      </cc:Work>
    </rdf:RDF>
  </metadata>
  <defs
     id="defs846" />
  <sodipodi:namedview
     pagecolor="#ffffff"
     bordercolor="#666666"
     borderopacity="1"
     objecttolerance="10"
     gridtolerance="10"
     guidetolerance="10"
     inkscape:pageopacity="0"
     inkscape:pageshadow="2"
     inkscape:window-width="1920"
     inkscape:window-height="1017"
     id="namedview844"
     showgrid="false"
     inkscape:zoom="0.98"
     inkscape:cx="109.18367"
     inkscape:cy="275"
     inkscape:window-x="-8"
     inkscape:window-y="-8"
     inkscape:window-maximized="1"
     inkscape:current-layer="svg842" />
  <path
     style="fill:#000000;stroke:none;stroke-width:1px;stroke-linecap:butt;stroke-linejoin:miter;stroke-opacity:1;fill-opacity:1"
     d="M 104.08163,112.2449 C 118.36735,120.40816 134.69388,125.5102 134.69388,125.5102 134.69388,125.5102 145.91837,138.77551 139.79592,144.89796 133.67347,151.02041 96.938776,210.20408 96.938776,210.20408 96.938776,210.20408 21.428571,292.85714 21.428571,300 21.428571,307.14286 21.428571,317.34694 21.428571,317.34694 L 48.979592,303.06122 108.16327,243.87755 123.46939,270.40816 124.4898,339.79592 V 446.93878 L 112.2449,509.18367 136.73469,538.77551 139.79592,458.16327 142.85714,268.36735 116.32653,232.65306 171.42857,161.22449 187.7551,150 186.73469,127.55102 162.2449,101.02041 116.32653,95.918367 Z"
     id="path852"
     inkscape:connector-curvature="0" />
  <path
     style="fill:#000000;stroke:none;stroke-width:1px;stroke-linecap:butt;stroke-linejoin:miter;stroke-opacity:1;fill-opacity:1"
     d="M 86.734694,376.53061 176.53061,412.2449 267.34694,360.20408 377.55102,337.7551 386.73469,348.97959 398.97959,330.61224 537.7551,329.59184 523.46939,317.34694 503.06122,308.16327 C 503.06122,308.16327 406.12245,319.38776 401.02041,318.36735 395.91837,317.34694 384.69388,233.67347 384.69388,233.67347 L 397.95918,163.26531 360.20408,140.81633 306.12245,151.02041 271.42857,168.36735 274.4898,179.59184 298.97959,186.73469 336.73469,158.16327 364.28571,154.08163 370.40816,185.71429 371.42857,270.40816 361.22449,275.5102 374.4898,323.46939 C 374.4898,323.46939 316.32653,351.02041 314.28571,332.65306 312.2449,314.28571 308.16327,289.79592 308.16327,289.79592 L 359.18367,252.04082 C 359.18367,252.04082 360.20408,242.85714 355.10204,242.85714 350,242.85714 321.42857,244.89796 321.42857,244.89796 L 311.22449,248.97959 309.18367,232.65306 353.06122,209.18367 358.16327,195.91837 C 358.16327,195.91837 344.89796,186.73469 340.81633,188.77551 336.73469,190.81633 307.14286,206.12245 307.14286,206.12245 L 298.97959,161.22449 291.83673,177.55102 C 291.83673,177.55102 294.89796,210.20408 289.79592,215.30612 284.69388,220.40816 270.40816,228.57143 270.40816,228.57143 L 294.89796,237.7551 295.91837,263.26531 268.36735,276.53061 274.4898,289.79592 292.85714,300 304.08163,306.12245 294.89796,333.67347 248.97959,344.89796 242.85714,261.22449 246.93878,216.32653 254.08163,197.95918 237.7551,180.61224 220.40816,171.42857 V 180.61224 L 228.57143,227.55102 226.53061,281.63265 V 324.4898 L 240.81633,348.97959 184.69388,366.32653 157.14286,378.57143 90.816327,376.53061 Z"
     id="path854"
     inkscape:connector-curvature="0" />
  <path
     style="fill:#000000;stroke:none;stroke-width:1px;stroke-linecap:butt;stroke-linejoin:miter;stroke-opacity:1;fill-opacity:1"
     d="M 268.36735,33.673469 C 268.36735,33.673469 290.81633,48.979592 288.77551,54.081633 286.73469,59.183673 288.77551,106.12245 288.77551,106.12245 L 287.7551,123.46939 237.7551,125.5102 C 237.7551,125.5102 235.71429,150 255.10204,147.95918 274.4898,145.91837 288.77551,126.53061 290.81633,130.61224 292.85714,134.69388 278.57143,171.42857 288.77551,166.32653 298.97959,161.22449 306.12245,151.02041 306.12245,151.02041 306.12245,151.02041 292.85714,130.61224 301.02041,127.55102 309.18367,124.4898 369.38776,112.2449 369.38776,112.2449 L 386.73469,105.10204 363.26531,78.571429 327.55102,111.22449 C 327.55102,111.22449 300,118.36735 300,113.26531 300,108.16327 311.22449,69.387755 311.22449,69.387755 L 309.18367,44.897959 288.77551,19.387755 Z"
     id="path856"
     inkscape:connector-curvature="0" />
  <path
     style="fill:#000000;stroke:none;stroke-width:1px;stroke-linecap:butt;stroke-linejoin:miter;stroke-opacity:1;fill-opacity:1"
     d="M 374.4898,51.020408 400,75.510204 424.4898,111.22449 444.89796,119.38776 C 444.89796,119.38776 461.22449,115.30612 462.2449,109.18367 463.26531,103.06122 448.97959,82.653061 448.97959,82.653061 L 410.20408,58.163265 379.59184,44.897959 Z"
     id="path860"
     inkscape:connector-curvature="0" />
  <path
     style="fill:#000000;stroke:none;stroke-width:1px;stroke-linecap:butt;stroke-linejoin:miter;stroke-opacity:1;fill-opacity:1"
     d="M 264.28571,405.10204 C 269.38776,412.2449 303.06122,458.16327 303.06122,458.16327 L 320.40816,426.53061 307.14286,410.20408 Z"
     id="path1410"
     inkscape:connector-curvature="0" />
  <path
     style="fill:#000000;stroke:none;stroke-width:1px;stroke-linecap:butt;stroke-linejoin:miter;stroke-opacity:1;fill-opacity:1"
     d="M 359.18367,352.04082 C 359.18367,357.14286 369.38776,392.85714 369.38776,392.85714 369.38776,392.85714 363.26531,429.59184 363.26531,434.69388 363.26531,439.79592 354.08163,473.46939 354.08163,473.46939 L 321.42857,483.67347 325.5102,501.02041 353.06122,533.67347 374.4898,521.42857 391.83673,477.55102 381.63265,423.46939 373.46939,360.20408 Z"
     id="path1414"
     inkscape:connector-curvature="0" />
</svg>
