<?xml version="1.0" encoding="UTF-8" standalone="no"?>
<!-- Created with Inkscape (http://www.inkscape.org/) -->

<svg
   xmlns:dc="http://purl.org/dc/elements/1.1/"
   xmlns:cc="http://creativecommons.org/ns#"
   xmlns:rdf="http://www.w3.org/1999/02/22-rdf-syntax-ns#"
   xmlns:svg="http://www.w3.org/2000/svg"
   xmlns="http://www.w3.org/2000/svg"
   xmlns:sodipodi="http://sodipodi.sourceforge.net/DTD/sodipodi-0.dtd"
   xmlns:inkscape="http://www.inkscape.org/namespaces/inkscape"
   version="1.1"
   id="svg1416"
   width="460"
   height="460"
   viewBox="0 0 460 460"
   sodipodi:docname="U+5225.svg"
   inkscape:version="0.92.4 (5da689c313, 2019-01-14)">
  <metadata
     id="metadata1422">
    <rdf:RDF>
      <cc:Work
         rdf:about="">
        <dc:format>image/svg+xml</dc:format>
        <dc:type
           rdf:resource="http://purl.org/dc/dcmitype/StillImage" />
        <dc:title></dc:title>
      </cc:Work>
    </rdf:RDF>
  </metadata>
  <defs
     id="defs1420" />
  <sodipodi:namedview
     pagecolor="#ffffff"
     bordercolor="#666666"
     borderopacity="1"
     objecttolerance="10"
     gridtolerance="10"
     guidetolerance="10"
     inkscape:pageopacity="0"
     inkscape:pageshadow="2"
     inkscape:window-width="1920"
     inkscape:window-height="1017"
     id="namedview1418"
     showgrid="false"
     inkscape:zoom="2.36"
     inkscape:cx="161.14407"
     inkscape:cy="297.79661"
     inkscape:window-x="-8"
     inkscape:window-y="-8"
     inkscape:window-maximized="1"
     inkscape:current-layer="svg1416" />
  <path
     style="fill:#000000;stroke:none;stroke-width:1px;stroke-linecap:butt;stroke-linejoin:miter;stroke-opacity:1;fill-opacity:1"
     d="M 86.016949,99.830508 93.644068,117.62712 106.77966,140.9322 123.72881,186.69492 125.42373,198.55932 136.86441,211.27119 143.22034,216.35593 150.42373,206.61017 142.37288,174.40678 C 142.37288,174.40678 152.54237,179.0678 157.20339,178.64407 161.86441,178.22034 186.01695,166.77966 186.01695,166.77966 L 210.16949,168.05085 222.88136,161.27119 220.76271,152.79661 199.15254,143.89831 219.49153,110 236.86441,94.745763 230.50847,77.372881 206.35593,64.661017 203.81356,76.101695 152.54237,92.627119 C 152.54237,92.627119 139.40678,96.864407 138.13559,95.169492 136.86441,93.474576 124.57627,90.084746 124.57627,90.084746 L 124.15254,97.711864 138.98305,115.08475 C 138.98305,115.08475 147.0339,120.59322 149.57627,120.59322 152.11864,120.59322 160.59322,118.05085 160.59322,118.05085 L 187.28814,98.983051 193.64407,101.94915 181.35593,148.98305 145.33898,167.20339 131.35593,127.37288 122.0339,114.23729 Z"
     id="path1426"
     inkscape:connector-curvature="0" />
  <path
     style="fill:#000000;stroke:none;stroke-width:1px;stroke-linecap:butt;stroke-linejoin:miter;stroke-opacity:1;fill-opacity:1"
     d="M 187.71186,184.15254 C 183.05085,187.9661 118.64407,269.32203 116.94915,272.71186 115.25424,276.10169 62.288136,323.55932 60.169492,323.55932 58.050847,323.55932 18.220339,348.13559 18.220339,348.13559 18.220339,348.13559 2.5423729,351.52542 13.135593,361.69492 23.728814,371.86441 22.457627,372.71186 22.457627,372.71186 L 41.949153,367.20339 116.94915,300.67797 172.88136,228.64407 181.77966,239.23729 206.35593,237.54237 211.86441,243.89831 212.28814,250.25424 182.20339,321.44068 163.55932,343.47458 C 163.55932,343.47458 140.25424,314.66102 138.55932,324.40678 136.86441,334.15254 138.98305,361.27119 138.98305,361.27119 L 138.13559,396.01695 148.30508,407.0339 C 148.30508,407.0339 142.79661,411.27119 151.69492,405.76271 160.59322,400.25424 169.0678,379.0678 169.0678,379.0678 L 192.79661,350.25424 217.37288,270.16949 231.35593,240.08475 217.79661,220.16949 C 217.79661,220.16949 174.15254,218.47458 177.9661,216.35593 181.77966,214.23729 190.25424,193.05085 190.25424,193.05085 L 190.67797,186.27119 Z"
     id="path1428"
     inkscape:connector-curvature="0" />
  <path
     style="fill:#000000;stroke:none;stroke-width:1px;stroke-linecap:butt;stroke-linejoin:miter;stroke-opacity:1;fill-opacity:1"
     d="M 280.08475,150.25424 C 279.23729,152.37288 283.05085,200.25424 283.05085,200.25424 L 305.50847,223.13559 C 305.50847,223.13559 319.0678,229.49153 320.33898,226.94915 321.61017,224.40678 333.89831,186.27119 333.89831,186.27119 L 326.27119,179.91525 C 326.27119,179.91525 300,171.86441 298.72881,170.16949 297.45763,168.47458 280.08475,150.25424 280.08475,150.25424 Z"
     id="path1434"
     inkscape:connector-curvature="0" />
  <path
     style="fill:#000000;stroke:none;stroke-width:1px;stroke-linecap:butt;stroke-linejoin:miter;stroke-opacity:1;fill-opacity:1"
     d="M 385.59322,24.830508 377.11864,41.355932 389.40678,67.627119 392.79661,76.949153 397.45763,345.16949 400.42373,351.94915 398.30508,354.49153 384.74576,353.64407 376.69492,358.72881 375.42373,361.27119 385.16949,368.89831 394.0678,389.23729 401.69492,427.79661 407.62712,441.77966 415.67797,446.86441 431.77966,444.32203 443.22034,423.55932 444.91525,415.50847 418.64407,312.9661 413.13559,205.76271 411.44068,122.71186 422.88136,62.118644 420.76271,48.135593 399.57627,33.305085 391.52542,20.169492 Z"
     id="path1436"
     inkscape:connector-curvature="0" />
</svg>
