<?xml version="1.0" encoding="UTF-8" standalone="no"?>
<!-- Created with Inkscape (http://www.inkscape.org/) -->

<svg
   xmlns:dc="http://purl.org/dc/elements/1.1/"
   xmlns:cc="http://creativecommons.org/ns#"
   xmlns:rdf="http://www.w3.org/1999/02/22-rdf-syntax-ns#"
   xmlns:svg="http://www.w3.org/2000/svg"
   xmlns="http://www.w3.org/2000/svg"
   xmlns:sodipodi="http://sodipodi.sourceforge.net/DTD/sodipodi-0.dtd"
   xmlns:inkscape="http://www.inkscape.org/namespaces/inkscape"
   version="1.1"
   id="svg1984"
   width="530"
   height="530"
   viewBox="0 0 530 530"
   sodipodi:docname="U+5351.svg"
   inkscape:version="0.92.4 (5da689c313, 2019-01-14)">
  <metadata
     id="metadata1990">
    <rdf:RDF>
      <cc:Work
         rdf:about="">
        <dc:format>image/svg+xml</dc:format>
        <dc:type
           rdf:resource="http://purl.org/dc/dcmitype/StillImage" />
        <dc:title></dc:title>
      </cc:Work>
    </rdf:RDF>
  </metadata>
  <defs
     id="defs1988" />
  <sodipodi:namedview
     pagecolor="#ffffff"
     bordercolor="#666666"
     borderopacity="1"
     objecttolerance="10"
     gridtolerance="10"
     guidetolerance="10"
     inkscape:pageopacity="0"
     inkscape:pageshadow="2"
     inkscape:window-width="1920"
     inkscape:window-height="1017"
     id="namedview1986"
     showgrid="false"
     inkscape:zoom="1.63"
     inkscape:cx="165.30675"
     inkscape:cy="265"
     inkscape:window-x="-8"
     inkscape:window-y="-8"
     inkscape:window-maximized="1"
     inkscape:current-layer="svg1984" />
  <path
     style="fill:#000000;stroke:none;stroke-width:1px;stroke-linecap:butt;stroke-linejoin:miter;stroke-opacity:1;fill-opacity:1"
     d="M 111.65644,55.153374 121.47239,76.01227 140.4908,85.214724 152.76074,109.1411 158.89571,149.6319 V 181.53374 L 116.56442,172.33129 112.88344,181.53374 124.53988,209.7546 152.14724,232.45399 153.37423,242.26994 142.33129,258.22086 111.65644,271.10429 123.92638,277.85276 C 123.92638,277.85276 67.484663,293.19018 64.417178,293.19018 61.349693,293.19018 40.490798,279.69325 40.490798,279.69325 40.490798,279.69325 35.582822,286.44172 34.969325,289.5092 34.355828,292.57669 34.355828,303.00613 34.355828,303.00613 L 57.055215,324.47853 76.687117,328.77301 88.343558,309.7546 163.80368,273.55828 256.44172,250.2454 279.7546,246.56442 287.11656,264.35583 286.50307,372.94479 276.68712,462.51534 C 276.68712,462.51534 285.27607,474.78528 275.46012,469.2638 265.64417,463.74233 259.5092,460.06135 259.5092,460.06135 L 254.60123,485.21472 C 254.60123,485.21472 262.57669,517.73006 274.84663,522.63804 287.11656,527.54601 295.70552,478.46626 295.70552,478.46626 L 296.93252,319.57055 292.63804,264.96933 299.3865,242.26994 374.23313,239.20245 430.06135,242.88344 487.11656,256.99387 500.6135,241.65644 471.77914,225.70552 435.58282,215.88957 401.84049,222.63804 301.84049,234.90798 298.77301,210.3681 257.66871,198.09816 228.22086,193.80368 272.39264,207.30061 284.04908,221.41104 280.9816,239.20245 189.57055,258.83436 192.63804,233.06748 184.66258,221.41104 171.16564,215.27607 214.72393,187.66871 290.79755,171.10429 303.06748,180.30675 C 303.06748,180.30675 311.65644,193.19018 314.72393,190.1227 317.79141,187.05521 327.60736,170.4908 327.60736,170.4908 L 346.62577,92.576687 369.93865,69.263804 368.09816,53.312883 339.8773,5.4601227 319.0184,8.5276074 309.20245,23.251534 190.18405,46.564417 168.09816,45.337423 176.07362,62.515337 200,76.01227 310.42945,37.97546 312.26994,54.539877 298.77301,155.15337 252.14724,154.53988 256.44172,112.20859 302.45399,94.417178 291.41104,80.920245 276.68712,76.625767 249.69325,88.282209 250.30675,74.171779 223.31288,52.08589 203.68098,60.674847 218.40491,80.920245 216.56442,98.711656 226.99387,137.97546 220.2454,164.35583 185.88957,172.94479 183.43558,128.77301 213.49693,137.97546 240.4908,115.27607 229.44785,87.055215 177.30061,104.84663 184.04908,91.96319 162.57669,69.263804 C 162.57669,69.263804 135.58282,55.766871 131.90184,55.766871 128.22086,55.766871 111.65644,55.153374 111.65644,55.153374 Z"
     id="path1998"
     inkscape:connector-curvature="0" />
</svg>
