<?xml version="1.0" encoding="UTF-8" standalone="no"?>
<!-- Created with Inkscape (http://www.inkscape.org/) -->

<svg
   xmlns:dc="http://purl.org/dc/elements/1.1/"
   xmlns:cc="http://creativecommons.org/ns#"
   xmlns:rdf="http://www.w3.org/1999/02/22-rdf-syntax-ns#"
   xmlns:svg="http://www.w3.org/2000/svg"
   xmlns="http://www.w3.org/2000/svg"
   xmlns:sodipodi="http://sodipodi.sourceforge.net/DTD/sodipodi-0.dtd"
   xmlns:inkscape="http://www.inkscape.org/namespaces/inkscape"
   version="1.1"
   id="svg2016"
   width="531"
   height="531"
   viewBox="0 0 531 531"
   sodipodi:docname="U+548A.svg"
   inkscape:version="0.92.4 (5da689c313, 2019-01-14)">
  <metadata
     id="metadata2022">
    <rdf:RDF>
      <cc:Work
         rdf:about="">
        <dc:format>image/svg+xml</dc:format>
        <dc:type
           rdf:resource="http://purl.org/dc/dcmitype/StillImage" />
        <dc:title></dc:title>
      </cc:Work>
    </rdf:RDF>
  </metadata>
  <defs
     id="defs2020" />
  <sodipodi:namedview
     pagecolor="#ffffff"
     bordercolor="#666666"
     borderopacity="1"
     objecttolerance="10"
     gridtolerance="10"
     guidetolerance="10"
     inkscape:pageopacity="0"
     inkscape:pageshadow="2"
     inkscape:window-width="1920"
     inkscape:window-height="1017"
     id="namedview2018"
     showgrid="false"
     inkscape:zoom="1.24"
     inkscape:cx="134.45161"
     inkscape:cy="265.5"
     inkscape:window-x="-8"
     inkscape:window-y="-8"
     inkscape:window-maximized="1"
     inkscape:current-layer="svg2016" />
  <path
     style="fill:#000000;stroke:none;stroke-width:1px;stroke-linecap:butt;stroke-linejoin:miter;stroke-opacity:1;fill-opacity:1"
     d="M 224.19355,110.03226 215.32258,120.51613 V 135.03226 L 180.64516,160.83871 143.54839,179.3871 163.70968,184.22581 204.03226,171.32258 C 204.03226,171.32258 240.32258,165.67742 250.80645,159.22581 261.29032,152.77419 273.3871,141.48387 273.3871,141.48387 L 266.93548,126.96774 249.19355,112.45161 229.03226,105.19355 Z"
     id="path2030"
     inkscape:connector-curvature="0" />
  <path
     style="fill:#000000;stroke:none;stroke-width:1px;stroke-linecap:butt;stroke-linejoin:miter;stroke-opacity:1;fill-opacity:1"
     d="M 199.19355,223.74194 75.806452,268.90323 43.548387,275.35484 16.935484,267.29032 12.096774,278.58065 20.967742,296.32258 33.870968,318.90323 41.129032,325.35484 96.774194,289.87097 180.64516,254.3871 202.41935,246.32258 208.87097,252.77419 198.3871,264.87097 149.19355,328.58065 123.3871,347.93548 107.25806,336.64516 112.09677,362.45161 123.3871,374.54839 150,353.58065 185.48387,307.6129 204.03226,281.80645 211.29032,276.16129 200,381.80645 191.93548,397.93548 208.06452,439.06452 C 208.06452,439.06452 209.67742,446.32258 212.90323,439.06452 216.12903,431.80645 223.3871,422.12903 223.3871,422.12903 L 220.96774,380.19355 V 239.87097 L 266.93548,222.12903 C 266.93548,222.12903 300,224.54839 305.64516,222.93548 311.29032,221.32258 317.74194,205.19355 317.74194,205.19355 L 266.12903,192.29032 229.83871,207.6129 225.80645,197.93548 193.54839,186.64516 166.93548,201.16129 175.80645,210.03226 201.6129,217.29032 Z"
     id="path2036"
     inkscape:connector-curvature="0" />
  <path
     style="fill:#000000;stroke:none;stroke-width:1px;stroke-linecap:butt;stroke-linejoin:miter;stroke-opacity:1;fill-opacity:1"
     d="M 234.67742,285.83871 258.06452,314.06452 271.77419,331.80645 280.64516,303.58065 265.32258,287.45161 245.96774,285.03226 241.12903,299.54839 258.06452,324.54839 272.58065,331 268.54839,296.32258 246.77419,285.83871 Z"
     id="path2038"
     inkscape:connector-curvature="0" />
  <path
     style="fill:#000000;stroke:none;stroke-width:1px;stroke-linecap:butt;stroke-linejoin:miter;stroke-opacity:1;fill-opacity:1"
     d="M 291.12903,264.06452 317.74194,285.03226 342.74194,365.67742 345.96774,388.25806 362.09677,402.77419 370.96774,391.48387 359.67742,363.25806 371.77419,372.12903 412.90323,348.74194 483.87097,361.64516 495.96774,370.51613 488.70968,343.90323 461.29032,326.16129 485.48387,304.3871 510.48387,257.6129 524.19355,248.74194 522.58065,236.64516 486.29032,210.03226 477.41935,218.90323 443.54839,322.93548 384.67742,333.41935 359.67742,343.09677 344.35484,289.06452 423.3871,255.19355 483.06452,243.09677 C 483.06452,243.09677 491.93548,224.54839 488.70968,222.93548 485.48387,221.32258 458.06452,229.3871 452.41935,229.3871 446.77419,229.3871 333.87097,260.03226 333.87097,260.03226 L 298.3871,243.09677 282.25806,260.83871 Z"
     id="path2040"
     inkscape:connector-curvature="0" />
</svg>
