<?xml version="1.0" encoding="UTF-8" standalone="no"?>
<!-- Created with Inkscape (http://www.inkscape.org/) -->

<svg
 xmlns:dc="http://purl.org/dc/elements/1.1/"
 xmlns:cc="http://creativecommons.org/ns#"
 xmlns:rdf="http://www.w3.org/1999/02/22-rdf-syntax-ns#"
 xmlns:svg="http://www.w3.org/2000/svg"
 xmlns="http://www.w3.org/2000/svg"
 xmlns:sodipodi="http://sodipodi.sourceforge.net/DTD/sodipodi-0.dtd"
 xmlns:inkscape="http://www.inkscape.org/namespaces/inkscape"
 version="1.1"
 id="svg3118"
 width="512"
 height="512"
 viewBox="0 0 512 512"
 sodipodi:docname="U+5531.svg"
 inkscape:version="0.92.4 (5da689c313, 2019-01-14)">
<metadata
 id="metadata3124">
<rdf:RDF>
<cc:Work
 rdf:about="">
<dc:format>image/svg+xml</dc:format>
<dc:type
 rdf:resource="http://purl.org/dc/dcmitype/StillImage" />
<dc:title></dc:title>
</cc:Work>
</rdf:RDF>
</metadata>
<defs
 id="defs3122" />
<sodipodi:namedview
 pagecolor="#ffffff"
 bordercolor="#666666"
 borderopacity="1"
 objecttolerance="10"
 gridtolerance="10"
 guidetolerance="10"
 inkscape:pageopacity="0"
 inkscape:pageshadow="2"
 inkscape:window-width="1920"
 inkscape:window-height="1017"
 id="namedview3120"
 showgrid="false"
 inkscape:zoom="1.6934021"
 inkscape:cx="160.03933"
 inkscape:cy="256"
 inkscape:window-x="-8"
 inkscape:window-y="-8"
 inkscape:window-maximized="1"
 inkscape:current-layer="svg3118" />
<path
 style="fill:#000000;stroke:none;stroke-width:1px;stroke-linecap:butt;stroke-linejoin:miter;stroke-opacity:1;fill-opacity:1"
 d="M 18.306344,135.83417 44.880068,161.81736 73.815901,237.40485 79.130646,252.16803 C 79.130646,252.16803 86.216973,254.53014 88.579081,252.75855 90.94119,250.98697 87.398027,225.00378 87.398027,225.00378 87.398027,225.00378 95.665408,214.37429 101.57068,214.96481 107.47595,215.55534 128.1444,209.05954 135.82126,206.10691 143.49811,203.15427 151.76549,197.249 147.6318,194.88689 143.49811,192.52478 141.72653,190.7532 141.72653,190.7532 L 151.17497,143.51102 C 151.17497,143.51102 150.58444,115.75624 155.30866,113.98466 160.03287,112.21308 181.88238,111.03202 159.44235,96.859371 137.00231,82.686718 122.82966,83.277246 122.82966,83.277246 122.82966,83.277246 112.20017,83.867773 111.01912,86.229882 109.83806,88.591991 110.42859,97.449899 106.88542,97.449899 103.34226,97.449899 82.083282,105.71728 82.083282,105.71728 L 65.54852,100.99306 60.233775,115.16571 C 60.233775,115.16571 70.272738,126.38573 70.863265,128.74784 71.453792,131.10995 75.587483,141.14891 77.949592,141.73944 80.311701,142.32997 77.359064,145.2826 84.445391,142.92049 91.531718,140.55839 115.15281,129.9289 115.15281,129.9289 L 121.64861,141.14891 120.46755,167.13211 C 120.46755,167.13211 125.19177,187.21003 122.23913,187.21003 119.2865,187.21003 100.98015,195.47742 97.43699,196.65847 93.893826,197.83952 79.130646,201.38269 79.130646,201.38269 L 72.634847,152.36893 66.729575,145.2826 C 66.729575,145.2826 64.957993,140.55839 55.509558,140.55839 46.061122,140.55839 26.573724,132.88153 26.573724,132.88153 Z"
 id="path3132"
 inkscape:connector-curvature="0" />
<path
 style="fill:#000000;stroke:none;stroke-width:1px;stroke-linecap:butt;stroke-linejoin:miter;stroke-opacity:1;fill-opacity:1"
 d="M 170.66236,293.50493 194.87398,317.71655 226.17192,379.13138 237.39194,409.24827 217.31401,407.47668 238.57299,430.50725 C 238.57299,430.50725 244.47826,436.41252 248.61196,436.41252 252.74565,436.41252 280.50042,422.23986 280.50042,422.23986 L 337.19104,411.01985 C 337.19104,411.01985 360.81213,406.29563 361.40265,409.24827 361.99318,412.2009 372.03214,433.45988 372.03214,433.45988 L 382.66163,429.91672 399.19639,366.73031 409.82588,292.32388 425.17959,276.97017 421.0459,265.75015 370.26056,254.53014 282.86253,266.93121 C 282.86253,266.93121 216.72349,283.46597 219.08559,285.82808 221.4477,288.19019 236.21088,298.81968 245.06879,301.77231 253.9267,304.72495 256.87934,302.36284 263.37514,299.4102 269.87093,296.45757 310.02679,279.92281 314.16048,279.92281 318.29417,279.92281 354.90685,272.83648 357.26896,272.83648 359.63107,272.83648 372.62267,265.75015 376.75636,275.19859 380.89005,284.64702 383.25216,287.59966 384.43321,289.96177 385.61427,292.32388 386.79532,294.09546 386.2048,297.63862 385.61427,301.18179 379.709,333.66078 379.709,333.66078 379.709,333.66078 376.75636,364.3682 372.62267,364.3682 368.48898,364.3682 349.59211,357.28187 352.54474,361.41556 355.49738,365.54925 354.31633,386.2177 354.31633,386.2177 354.31633,386.2177 335.41946,388.57981 315.93206,389.17034 296.44466,389.76087 261.01303,400.98088 261.01303,400.98088 261.01303,400.98088 258.65092,408.65774 255.10775,398.02825 251.56459,387.39876 229.12456,327.75551 229.12456,327.75551 L 217.90454,292.91441 C 217.90454,292.91441 184.24449,284.0565 179.52027,284.0565 174.79605,284.0565 166.52867,279.92281 166.52867,283.46597 166.52867,287.00913 170.66236,293.50493 170.66236,293.50493 Z"
 id="path3136"
 inkscape:connector-curvature="0" />
<path
 style="fill:#000000;stroke:none;stroke-width:1px;stroke-linecap:butt;stroke-linejoin:miter;stroke-opacity:1;fill-opacity:1"
 d="M 262.78461,336.02289 C 262.78461,336.02289 275.18568,354.32923 279.31937,354.91976 283.45306,355.51029 294.08255,349.60502 299.98782,347.24291 305.89309,344.8808 333.64787,322.44077 333.64787,322.44077 L 326.56155,311.81128 C 326.56155,311.81128 320.06575,308.26811 305.30257,311.81128 290.53939,315.35444 288.17728,323.62182 288.17728,323.62182 Z"
 id="path3138"
 inkscape:connector-curvature="0" />
<path
 style="fill:#000000;stroke:none;stroke-width:1px;stroke-linecap:butt;stroke-linejoin:miter;stroke-opacity:1;fill-opacity:1"
 d="M 196.05503,73.82881 C 198.41714,79.143555 210.81821,101.58359 213.77085,103.9457 216.72349,106.30781 231.48667,126.38573 231.48667,133.47206 231.48667,140.55839 232.07719,158.86473 232.66772,162.40789 233.25825,165.95106 244.47826,196.06794 245.06879,199.61111 245.65932,203.15427 246.84037,211.42165 244.47826,212.01218 242.11616,212.6027 223.80981,221.46061 220.26665,220.27956 216.72349,219.0985 200.77925,217.91745 200.77925,217.91745 200.77925,217.91745 194.28345,229.13747 197.23609,232.0901 200.18872,235.04274 209.04663,236.22379 210.81821,239.76696 212.5898,243.31012 228.53403,256.89225 231.48667,254.53014 234.4393,252.16803 254.51723,232.68063 256.87934,230.90905 259.24145,229.13747 289.35833,220.87009 294.08255,218.50798 298.80677,216.14587 327.15207,204.33532 327.15207,204.33532 327.15207,204.33532 341.91525,209.65007 356.08791,209.65007 370.26056,209.65007 372.62267,207.28796 374.39425,203.15427 376.16583,199.02058 385.02374,165.36053 385.02374,165.36053 385.02374,165.36053 387.97638,108.66992 389.74796,103.9457 391.51954,99.22148 402.14903,49.026668 402.14903,49.026668 402.14903,49.026668 397.20172,44.861788 390.92901,38.987705 382.24505,30.85559 351.95422,26.586634 351.95422,26.586634 L 301.16888,33.67296 240.34457,45.483504 236.21088,53.750885 252.15512,70.876174 273.4141,65.561429 C 273.4141,65.561429 317.70364,50.798249 322.42786,50.798249 327.15207,50.798249 359.04054,47.255086 359.04054,47.255086 359.04054,47.255086 370.85109,54.93194 370.26056,57.884576 369.67003,60.837212 367.30792,69.69512 366.7174,72.647756 366.12687,75.600392 363.17423,109.85097 363.17423,109.85097 L 361.99318,161.81736 347.23,158.2742 345.45842,176.58054 351.36369,188.98162 C 351.36369,188.98162 322.42786,183.07634 320.06575,185.43845 317.70364,187.80056 263.96566,204.92585 263.96566,204.92585 L 253.9267,145.2826 252.74564,109.85097 226.17192,90.954099 Z"
 id="path3142"
 inkscape:connector-curvature="0"
 sodipodi:nodetypes="cssssccccccsscsscscsccccccscsccccccsccccc" />
<path
 style="fill:#000000;stroke:none;stroke-width:1px;stroke-linecap:butt;stroke-linejoin:miter;stroke-opacity:1;fill-opacity:1"
 d="M 276.95726,132.88153 288.17728,144.10155 303.53099,150.00682 C 303.53099,150.00682 323.60891,134.65311 326.56155,135.24364 329.51418,135.83417 338.96262,122.25204 338.96262,122.25204 L 319.47522,111.62255 292.9015,121.07099 Z"
 id="path3144"
 inkscape:connector-curvature="0" />
</svg>
