<?xml version="1.0" encoding="UTF-8" standalone="no"?>
<!-- Created with Inkscape (http://www.inkscape.org/) -->

<svg
 xmlns:dc="http://purl.org/dc/elements/1.1/"
 xmlns:cc="http://creativecommons.org/ns#"
 xmlns:rdf="http://www.w3.org/1999/02/22-rdf-syntax-ns#"
 xmlns:svg="http://www.w3.org/2000/svg"
 xmlns="http://www.w3.org/2000/svg"
 xmlns:sodipodi="http://sodipodi.sourceforge.net/DTD/sodipodi-0.dtd"
 xmlns:inkscape="http://www.inkscape.org/namespaces/inkscape"
 version="1.1"
 id="svg3692"
 width="581"
 height="581"
 viewBox="0 0 581 581"
 sodipodi:docname="U+5916.svg"
 inkscape:version="0.92.4 (5da689c313, 2019-01-14)">
<metadata
 id="metadata3698">
<rdf:RDF>
<cc:Work
 rdf:about="">
<dc:format>image/svg+xml</dc:format>
<dc:type
 rdf:resource="http://purl.org/dc/dcmitype/StillImage" />
<dc:title></dc:title>
</cc:Work>
</rdf:RDF>
</metadata>
<defs
 id="defs3696" />
<sodipodi:namedview
 pagecolor="#ffffff"
 bordercolor="#666666"
 borderopacity="1"
 objecttolerance="10"
 gridtolerance="10"
 guidetolerance="10"
 inkscape:pageopacity="0"
 inkscape:pageshadow="2"
 inkscape:window-width="1920"
 inkscape:window-height="1017"
 id="namedview3694"
 showgrid="false"
 inkscape:zoom="1.1575153"
 inkscape:cx="150.11309"
 inkscape:cy="290.5"
 inkscape:window-x="-8"
 inkscape:window-y="-8"
 inkscape:window-maximized="1"
 inkscape:current-layer="svg3692" />
<path
 style="fill:#000000;stroke:none;stroke-width:1px;stroke-linecap:butt;stroke-linejoin:miter;stroke-opacity:1;fill-opacity:1"
 d="M 156.36942,159.40731 C 156.36942,159.40731 165.00861,173.23003 165.00861,179.27746 165.00861,185.3249 165.00861,195.69193 165.00861,199.14761 165.00861,202.60329 146.00238,225.06519 146.00238,225.06519 146.00238,225.06519 141.68279,234.56831 126.99616,241.47966 112.30953,248.39102 117.49304,254.43845 117.49304,254.43845 L 111.44561,269.12508 127.86008,280.35604 139.95495,250.11886 156.36942,239.75182 167.60037,280.35604 175.37565,294.17875 174.51173,303.68186 C 174.51173,303.68186 70.841394,420.31098 63.930038,425.4945 57.018683,430.67802 51.835166,435.86153 51.835166,435.86153 L 46.65165,414.26355 31.965019,452.276 C 31.965019,452.276 28.509341,463.50696 39.740294,462.64304 50.971247,461.77912 66.521797,442.77289 66.521797,442.77289 L 104.53425,399.57692 181.42308,305.4097 205.61283,291.58699 C 205.61283,291.58699 197.83755,291.58699 202.15715,279.49212 206.47675,267.39724 239.30568,216.426 239.30568,216.426 L 268.67894,186.18882 269.54286,170.63827 V 170.63827 C 269.54286,170.63827 249.67272,146.44852 245.35312,151.63204 241.03352,156.81556 228.93865,168.91043 228.93865,168.91043 L 202.15715,176.6857 239.30568,191.37233 231.53041,211.24248 C 231.53041,211.24248 220.29946,237.16006 214.25202,244.07142 208.20458,250.98278 194.38187,268.26116 194.38187,268.26116 L 162.41685,231.97655 187.47052,206.05896 185.74268,175.82178 Z"
 id="path3704"
 inkscape:connector-curvature="0" />
<path
 style="fill:#000000;stroke:none;stroke-width:1px;stroke-linecap:butt;stroke-linejoin:miter;stroke-opacity:1;fill-opacity:1"
 d="M 273.86246,76.471049 C 273.86246,76.471049 290.27693,67.831855 295.46045,78.198888 300.64396,88.565921 298.91613,111.02783 298.91613,117.07526 298.91613,123.1227 299.78004,207.7868 299.78004,207.7868 299.78004,207.7868 280.77382,183.59706 279.9099,187.91666 279.04598,192.23625 280.77382,214.69816 283.36558,218.15384 285.95733,221.60951 300.64396,226.79303 300.64396,226.79303 300.64396,226.79303 301.50788,301.0901 301.50788,311.45714 301.50788,321.82417 312.73884,379.70677 308.41924,382.29853 304.09964,384.89029 303.23572,387.48205 303.23572,387.48205 L 276.45422,338.23864 280.77382,377.97893 292.86869,432.40586 C 292.86869,432.40586 312.73884,516.20604 320.51411,496.3359 328.28939,476.46575 332.60898,446.22857 332.60898,446.22857 332.60898,446.22857 317.92235,412.53571 317.92235,399.57692 317.92235,386.61813 310.14708,233.70439 310.14708,233.70439 L 387.03591,297.63442 444.91851,326.14377 C 444.91851,326.14377 513.16815,388.34597 518.35166,375.38717 523.53518,362.42838 560.68371,340.8304 565.00331,338.23864 569.32291,335.64688 579.68994,327.00769 572.77859,327.00769 565.86723,327.00769 460.46906,297.63442 460.46906,297.63442 L 343.83994,248.39102 305.82748,216.426 315.33059,158.5434 326.56155,85.110243 C 326.56155,85.110243 341.24818,77.334968 316.19451,58.328741 291.14085,39.322513 285.95733,39.322513 285.95733,39.322513 L 266.08719,50.553466 C 266.08719,50.553466 265.22327,62.648338 265.22327,66.104016 265.22327,69.559694 273.86246,76.471049 273.86246,76.471049 Z"
 id="path3708"
 inkscape:connector-curvature="0" />
</svg>
