<?xml version="1.0" encoding="UTF-8" standalone="no"?>
<!-- Created with Inkscape (http://www.inkscape.org/) -->

<svg
   xmlns:dc="http://purl.org/dc/elements/1.1/"
   xmlns:cc="http://creativecommons.org/ns#"
   xmlns:rdf="http://www.w3.org/1999/02/22-rdf-syntax-ns#"
   xmlns:svg="http://www.w3.org/2000/svg"
   xmlns="http://www.w3.org/2000/svg"
   xmlns:sodipodi="http://sodipodi.sourceforge.net/DTD/sodipodi-0.dtd"
   xmlns:inkscape="http://www.inkscape.org/namespaces/inkscape"
   version="1.1"
   id="svg1388"
   width="520"
   height="520"
   viewBox="0 0 520 520"
   sodipodi:docname="U+5A66.svg"
   inkscape:version="0.92.4 (5da689c313, 2019-01-14)">
  <metadata
     id="metadata1394">
    <rdf:RDF>
      <cc:Work
         rdf:about="">
        <dc:format>image/svg+xml</dc:format>
        <dc:type
           rdf:resource="http://purl.org/dc/dcmitype/StillImage" />
        <dc:title></dc:title>
      </cc:Work>
    </rdf:RDF>
  </metadata>
  <defs
     id="defs1392" />
  <sodipodi:namedview
     pagecolor="#ffffff"
     bordercolor="#666666"
     borderopacity="1"
     objecttolerance="10"
     gridtolerance="10"
     guidetolerance="10"
     inkscape:pageopacity="0"
     inkscape:pageshadow="2"
     inkscape:window-width="1680"
     inkscape:window-height="988"
     id="namedview1390"
     showgrid="false"
     inkscape:zoom="1.7945308"
     inkscape:cx="215.07218"
     inkscape:cy="266.00338"
     inkscape:window-x="-8"
     inkscape:window-y="-8"
     inkscape:window-maximized="1"
     inkscape:current-layer="svg1388">
    <inkscape:grid
       type="xygrid"
       id="grid1941" />
  </sodipodi:namedview>
  <path
     style="fill:#000000;fill-opacity:1;stroke:none;stroke-width:1px;stroke-linecap:butt;stroke-linejoin:miter;stroke-opacity:1"
     d="M 135.9687,87.574979 124.26646,126.58239 108.10626,226.32992 109.22075,255.8641 128.72446,286.51278 159.93039,310.47447 C 159.93039,310.47447 189.19639,320.35835 203.95304,318.27596 214.39972,316.80177 232.37272,304.34474 232.37272,304.34474 L 236.83071,292.08527 228.47198,269.79532 222.34225,273.13881 222.8995,292.64252 C 222.8995,292.64252 208.0382,299.65073 200.05229,299.88675 184.92174,300.33391 156.02965,288.74177 156.02965,288.74177 L 135.96869,277.5968 116.46499,250.84886 117.02223,205.15446 142.09843,163.36081 153.24341,134.38387 Z"
     id="path1943"
     inkscape:connector-curvature="0"
     sodipodi:nodetypes="ccccccscccccaccccccc" />
  <path
     style="fill:none;stroke:#000000;stroke-width:1px;stroke-linecap:butt;stroke-linejoin:miter;stroke-opacity:1"
     d="M 166.61737,360.06961 Z"
     id="path1945"
     inkscape:connector-curvature="0" />
  <path
     style="fill:none;stroke:#000000;stroke-width:1px;stroke-linecap:butt;stroke-linejoin:miter;stroke-opacity:1"
     d="M 173.86161,309.35998 Z"
     id="path1947"
     inkscape:connector-curvature="0" />
  <path
     style="fill:#000000;fill-opacity:1;stroke:none;stroke-width:1px;stroke-linecap:butt;stroke-linejoin:miter;stroke-opacity:1"
     d="M 11.144975,272.58156 44.02265,264.78008 158.25864,194.56674 164.94563,181.19277 161.60213,170.04779 196.70881,177.84928 198.38055,192.89499 192.80806,195.68123 181.66309,190.10875 179.43409,195.12399 188.90732,206.82621 189.46457,215.74219 168.28912,270.35257 142.65568,310.47447 C 142.65568,310.47447 129.18334,320.93459 121.48022,324.40569 111.12766,329.07066 88.602549,333.32167 88.602549,333.32167 L 54.610376,327.19194 47.923391,324.96294 106.43451,301.00125 128.72446,286.51278 139.86943,272.02431 160.48764,231.9024 166.61737,207.38346 155.4724,208.49796 120.36573,245.83362 81.358316,281.49754 72.999585,287.62728 49.037889,290.41352 38.450163,295.98601 C 38.450163,295.98601 16.863429,289.55137 8.3587311,282.61204 5.8826349,280.59169 2.7862437,274.81056 2.7862437,274.81056 Z"
     id="path1949"
     inkscape:connector-curvature="0"
     sodipodi:nodetypes="ccccccccccccccsccccccccccccccacc" />
  <path
     style="fill:none;stroke:#000000;stroke-width:1px;stroke-linecap:butt;stroke-linejoin:miter;stroke-opacity:1"
     d="M 166.61737,360.06961 Z"
     id="path1951"
     inkscape:connector-curvature="0" />
  <path
     style="fill:#000000;stroke:none;stroke-width:1px;stroke-linecap:butt;stroke-linejoin:miter;stroke-opacity:1;fill-opacity:1"
     d="M 304.81506,70.300269 C 308.1339,57.755967 342.15073,56.369051 342.15073,56.369051 L 351.62395,43.552329 363.88343,42.995081 396.20385,73.643761 395.6466,82.002492 382.82988,89.803975 357.75369,156.11657 325.43326,159.46007 288.0976,170.60504 C 288.0976,170.60504 273.77907,171.88798 273.05188,165.5898 272.69032,162.45833 278.62437,153.88758 278.62437,153.88758 L 334.90649,142.18536 341.03623,125.46789 333.23475,124.3534 311.50204,128.25414 295.34183,114.88017 306.48681,108.75043 329.89125,102.06345 334.34924,97.605457 343.26522,101.5062 351.0667,85.903233 347.72321,76.430005 319.86078,79.773497 C 319.86078,79.773497 302.99974,77.161673 304.81506,70.300269 Z"
     id="path1965"
     inkscape:connector-curvature="0"
     sodipodi:nodetypes="scccccccccscccccccccccccs" />
  <path
     style="fill:none;stroke:#000000;stroke-width:1px;stroke-linecap:butt;stroke-linejoin:miter;stroke-opacity:1"
     d="M 269.15114,227.44441 Z"
     id="path1975"
     inkscape:connector-curvature="0" />
  <path
     style="fill:#000000;stroke:none;stroke-width:1px;stroke-linecap:butt;stroke-linejoin:miter;stroke-opacity:1;fill-opacity:1"
     d="M 217.88426,194.56674 227.35748,210.1697 V 233.57415 L 238.50246,248.61986 251.31918,239.70388 257.44892,216.85669 246.30394,199.02473 Z"
     id="path1977"
     inkscape:connector-curvature="0" />
  <path
     style="fill:#000000;fill-opacity:1;stroke:none;stroke-width:1px;stroke-linecap:butt;stroke-linejoin:miter;stroke-opacity:1"
     d="M 265.80765,194.00949 275.83813,215.74219 328.21951,194.00949 343.26522,210.72695 342.15072,228.00166 H 331.563 C 331.563,228.00166 294.1766,234.26814 303.14332,241.93288 308.19882,246.25432 310.38755,248.61986 310.38755,248.61986 L 328.77676,254.7496 342.70797,244.71912 347.72321,249.17711 342.70797,309.91723 346.60871,368.42834 342.70797,425.82496 337.13549,443.65692 342.70797,464.83237 356.63919,473.74835 363.32618,467.06137 359.98268,407.43575 358.86819,343.9094 356.08194,289.85627 353.85295,240.81838 389.51687,226.32992 398.9901,238.58939 400.10459,280.94029 393.41761,295.42876 400.66184,323.84844 413.47856,324.96294 421.83729,292.64252 V 233.57415 C 421.83729,233.57415 412.58402,217.19144 404.56258,213.51319 395.95152,209.56456 376.1429,213.51319 376.1429,213.51319 L 357.19644,220.75743 356.63919,201.25372 339.36448,190.666 383.38713,174.50578 429.08153,166.7043 454.71497,162.80356 473.66143,172.83404 V 182.86451 L 468.08894,190.10875 455.27222,194.00949 470.87518,211.2842 488.70714,220.75743 509.88259,197.91023 513.78334,187.87975 498.18037,168.37605 469.76069,155.00208 444.12724,152.77308 375.0284,167.26155 321.53252,177.84928 282.52511,188.437 264.1359,187.87975 261.34966,187.3225 266.92215,195.68123 Z"
     id="path1979"
     inkscape:connector-curvature="0"
     sodipodi:nodetypes="ccccccscccccccccccccccccccccccsccccccccccccccccccccccccc" />
  <path
     style="fill:#000000;fill-opacity:1;stroke:none;stroke-width:1px;stroke-linecap:butt;stroke-linejoin:miter;stroke-opacity:1"
     d="M 269.15114,227.44441 294.78458,253.6351 300.35707,293.19976 C 300.35707,293.19976 302.73258,319.59564 291.99833,322.73395 284.05509,325.05627 276.39537,308.24548 276.39537,308.24548 L 277.50987,270.90981 275.28088,245.83362 Z"
     id="path1983"
     inkscape:connector-curvature="0"
     sodipodi:nodetypes="cccscccc" />
  <path
     style="fill:none;stroke:#000000;stroke-width:1px;stroke-linecap:butt;stroke-linejoin:miter;stroke-opacity:1"
     d="M 367.22692,226.32992 Z"
     id="path1985"
     inkscape:connector-curvature="0" />
</svg>
