<?xml version="1.0" encoding="UTF-8" standalone="no"?>
<!-- Created with Inkscape (http://www.inkscape.org/) -->

<svg
   xmlns:dc="http://purl.org/dc/elements/1.1/"
   xmlns:cc="http://creativecommons.org/ns#"
   xmlns:rdf="http://www.w3.org/1999/02/22-rdf-syntax-ns#"
   xmlns:svg="http://www.w3.org/2000/svg"
   xmlns="http://www.w3.org/2000/svg"
   xmlns:sodipodi="http://sodipodi.sourceforge.net/DTD/sodipodi-0.dtd"
   xmlns:inkscape="http://www.inkscape.org/namespaces/inkscape"
   version="1.1"
   id="svg1987"
   width="573"
   height="573"
   viewBox="0 0 573 573"
   sodipodi:docname="U+5C0A.svg"
   inkscape:version="0.92.4 (5da689c313, 2019-01-14)">
  <metadata
     id="metadata1993">
    <rdf:RDF>
      <cc:Work
         rdf:about="">
        <dc:format>image/svg+xml</dc:format>
        <dc:type
           rdf:resource="http://purl.org/dc/dcmitype/StillImage" />
        <dc:title></dc:title>
      </cc:Work>
    </rdf:RDF>
  </metadata>
  <defs
     id="defs1991" />
  <sodipodi:namedview
     pagecolor="#ffffff"
     bordercolor="#666666"
     borderopacity="1"
     objecttolerance="10"
     gridtolerance="10"
     guidetolerance="10"
     inkscape:pageopacity="0"
     inkscape:pageshadow="2"
     inkscape:window-width="1680"
     inkscape:window-height="988"
     id="namedview1989"
     showgrid="false"
     inkscape:zoom="1.4277029"
     inkscape:cx="286.5"
     inkscape:cy="342.53407"
     inkscape:window-x="-8"
     inkscape:window-y="-8"
     inkscape:window-maximized="1"
     inkscape:current-layer="svg1987" />
  <path
     style="fill:#000000;stroke:none;stroke-width:1px;stroke-linecap:butt;stroke-linejoin:miter;stroke-opacity:1;fill-opacity:1"
     d="M 258.45713,4.9546549 C 261.95926,4.2542291 285.07331,20.364023 285.07331,20.364023 V 60.988721 L 280.87076,87.604902 281.57118,170.25515 294.17885,179.36069 313.09034,178.66026 319.39418,182.86281 320.0946,191.96835 296.28012,203.17516 278.06905,194.06963 273.8665,188.46622 274.56692,166.75302 275.96778,161.85004 271.06479,154.14536 271.76522,119.12406 268.96352,95.309587 270.36437,76.398089 267.56267,56.08574 263.36011,23.165726 254.25457,4.9546549 Z"
     id="path2540"
     inkscape:connector-curvature="0" />
  <path
     style="fill:none;stroke:#000000;stroke-width:1px;stroke-linecap:butt;stroke-linejoin:miter;stroke-opacity:1"
     d="M 302.58396,192.66878 Z"
     id="path2542"
     inkscape:connector-curvature="0" />
  <path
     style="fill:#000000;stroke:none;stroke-width:1px;stroke-linecap:butt;stroke-linejoin:miter;stroke-opacity:1;fill-opacity:1"
     d="M 224.83669,70.794683 247.25032,99.512141 243.74819,148.54195 229.03925,215.0824 218.53286,221.38624 209.42732,216.48325 217.83243,202.47474 222.73541,201.07389 229.73967,176.55898 210.12775,166.75302 209.42732,151.34365 229.73967,149.9428 236.0435,136.63471 233.2418,126.82875 232.54137,101.61342 219.93371,73.596386 Z"
     id="path2544"
     inkscape:connector-curvature="0" />
  <path
     style="fill:#000000;stroke:none;stroke-width:1px;stroke-linecap:butt;stroke-linejoin:miter;stroke-opacity:1;fill-opacity:1"
     d="M 316.59247,11.258487 353.71504,36.473817 396.44102,58.187018 416.75337,86.204051 408.34826,97.410864 388.73633,90.406606 364.92186,70.094257 337.60525,41.376798 324.99758,25.96743 Z"
     id="path2546"
     inkscape:connector-curvature="0" />
  <path
     style="fill:none;stroke:#000000;stroke-width:1px;stroke-linecap:butt;stroke-linejoin:miter;stroke-opacity:1"
     d="M 168.80262,57.486592 Z"
     id="path2548"
     inkscape:connector-curvature="0" />
  <path
     style="fill:#000000;fill-opacity:1;stroke:none;stroke-width:1px;stroke-linecap:butt;stroke-linejoin:miter;stroke-opacity:1"
     d="M 209.42732,151.34365 229.73967,149.9428 275.26735,133.83301 328.49971,124.02705 H 336.90482 L 365.62228,148.54195 364.22143,160.44919 354.41547,173.05685 354.41546,219.98539 C 354.41546,219.98539 354.83571,255.96127 355.81632,273.91817 356.42952,285.1471 358.61803,307.53861 358.61803,307.53861 L 444.06997,299.1335 476.98999,297.73265 C 476.98999,297.73265 481.37832,287.48241 486.09553,286.52583 494.38682,284.84447 530.92278,305.43734 530.92278,305.43734 L 540.72874,313.14202 549.83427,325.74968 550.5347,332.05352 529.52192,338.35735 498.00276,329.95223 451.77466,320.14628 388.03591,320.14628 357.21717,319.44585 316.59248,322.94798 266.16181,334.85522 224.83669,348.86374 118.37196,378.28162 84.051099,388.78801 C 84.051099,388.78801 60.839835,408.58105 47.628956,409.80079 40.791324,410.43209 29.417885,401.39567 29.417885,401.39567 L 10.506387,379.68247 22.413626,377.58119 C 22.413626,377.58119 19.713322,380.26297 25.915755,380.3829 60.68767,381.05523 139.38474,352.36586 139.38474,352.36586 L 186.31327,342.5599 177.90816,326.45011 182.11071,260.61008 179.30901,203.87559 175.10646,189.86707 162.49879,182.16239 158.29624,175.85856 156.19496,155.54621 169.50305,157.64749 183.51157,161.14961 C 183.51157,161.14961 194.22901,163.44274 197.52008,169.55472 202.42307,178.66026 203.82392,184.26367 203.82392,184.26367 L 197.52008,219.28496 199.62136,315.2433 204.52434,334.85522 236.74393,326.45011 269.66394,319.44585 327.09886,310.34032 335.50397,298.43307 334.80354,255.7071 334.10312,168.8543 325.69801,142.93854 285.07331,151.34365 238.14478,164.65174 Z"
     id="path2550"
     inkscape:connector-curvature="0"
     sodipodi:nodetypes="cccccccccacccsccccccccccccccscccscccccccccccscccccccccccccc" />
  <path
     style="fill:#000000;fill-opacity:1;stroke:none;stroke-width:1px;stroke-linecap:butt;stroke-linejoin:miter;stroke-opacity:1"
     d="M 172.30475,56.08574 C 167.11211,59.924652 169.50305,77.098515 169.50305,77.098515 L 147.78985,105.81597 130.2792,122.62619 H 148.49028 L 185.61284,108.61768 206.62562,128.2296 222.73541,131.0313 318.69375,101.61342 339.0061,100.21257 C 339.0061,100.21257 351.60521,97.665416 350.21291,93.208309 346.25037,80.523164 309.58822,76.398089 309.58822,76.398089 L 280.87076,87.604902 232.54137,101.61342 215.03073,107.21683 191.21625,100.21257 198.92093,86.204051 194.71838,72.195534 C 194.71838,72.195534 180.29198,50.180784 172.30475,56.08574 Z"
     id="path2552"
     inkscape:connector-curvature="0"
     sodipodi:nodetypes="scccccccccscccccccs" />
  <path
     style="fill:#000000;stroke:none;stroke-width:1px;stroke-linecap:butt;stroke-linejoin:miter;stroke-opacity:1;fill-opacity:1"
     d="M 213.62988,239.59731 226.23754,257.80838 247.25032,261.31051 287.87501,233.29347 297.68098,235.39475 279.4699,220.68581 Z"
     id="path2554"
     inkscape:connector-curvature="0" />
  <path
     style="fill:#000000;stroke:none;stroke-width:1px;stroke-linecap:butt;stroke-linejoin:miter;stroke-opacity:1;fill-opacity:1"
     d="M 216.43158,285.12499 234.64265,299.1335 252.85372,304.03648 295.5797,283.02371 297.68098,269.71562 274.56692,264.11221 Z"
     id="path2556"
     inkscape:connector-curvature="0" />
  <path
     style="fill:#000000;fill-opacity:1;stroke:none;stroke-width:1px;stroke-linecap:butt;stroke-linejoin:miter;stroke-opacity:1"
     d="M 328.49971,320.8467 336.90482,328.55139 330.60099,350.96501 312.38992,346.76246 294.17885,354.46714 275.26735,352.36586 272.46565,362.87225 292.778,376.88077 297.68098,371.97779 304.68523,376.18034 301.18311,381.08332 221.33456,395.79227 182.81114,405.59823 166.00092,385.9863 147.78985,403.49695 151.29198,432.91483 C 152.72032,444.91288 151.29198,432.91483 151.29198,432.91483 L 171.60433,444.82207 184.21199,447.62378 198.22051,439.21867 214.3303,421.70802 265.46139,404.19738 315.89205,388.08758 H 324.29716 L 327.79929,397.89354 322.19588,498.05444 C 322.19588,498.05444 300.06181,473.10506 303.98481,484.04592 315.91122,517.30744 312.38992,518.36679 312.38992,518.36679 L 314.4912,547.08425 313.09034,562.49361 323.59673,571.59915 339.70653,561.09276 350.21291,540.78041 341.10738,473.53953 340.40695,399.99482 V 390.18886 L 389.43676,382.48418 H 448.97295 L 465.08275,381.08332 470.68616,369.87651 465.08275,362.17183 414.65209,348.86374 C 414.65209,348.86374 391.3113,359.41079 382.43251,362.87225 374.8814,365.81611 366.32271,368.47566 366.32271,368.47566 L 367.72356,357.96927 356.51675,328.55139 357.21717,319.44585 Z"
     id="path2560"
     inkscape:connector-curvature="0"
     sodipodi:nodetypes="cccccccccccccccsccccccccccscccccccccccccccsccccc" />
  <path
     style="fill:#000000;stroke:none;stroke-width:1px;stroke-linecap:butt;stroke-linejoin:miter;stroke-opacity:1;fill-opacity:1"
     d="M 238.14478,418.20589 C 238.84521,422.40845 237.97636,430.34894 238.14479,436.41696 238.37835,444.83179 236.34616,453.84594 239.54563,461.6323 242.62598,469.12875 255.65543,479.84337 255.65543,479.84337 255.65543,479.84337 265.79728,482.46123 269.66394,479.84337 274.8696,476.31897 276.6682,462.33272 276.6682,462.33272 276.6682,462.33272 276.75156,450.41604 273.8665,445.5225 269.47761,438.07822 253.55415,429.41271 253.55415,429.41271 Z"
     id="path2562"
     inkscape:connector-curvature="0"
     sodipodi:nodetypes="caacacacc" />
</svg>
