<?xml version="1.0" encoding="UTF-8" standalone="no"?>
<!-- Created with Inkscape (http://www.inkscape.org/) -->

<svg
 xmlns:dc="http://purl.org/dc/elements/1.1/"
 xmlns:cc="http://creativecommons.org/ns#"
 xmlns:rdf="http://www.w3.org/1999/02/22-rdf-syntax-ns#"
 xmlns:svg="http://www.w3.org/2000/svg"
 xmlns="http://www.w3.org/2000/svg"
 xmlns:sodipodi="http://sodipodi.sourceforge.net/DTD/sodipodi-0.dtd"
 xmlns:inkscape="http://www.inkscape.org/namespaces/inkscape"
 version="1.1"
 id="svg2546"
 width="472"
 height="472"
 viewBox="0 0 472 472"
 sodipodi:docname="U+7766.svg"
 inkscape:version="0.92.4 (5da689c313, 2019-01-14)">
<metadata
 id="metadata2552">
<rdf:RDF>
<cc:Work
 rdf:about="">
<dc:format>image/svg+xml</dc:format>
<dc:type
 rdf:resource="http://purl.org/dc/dcmitype/StillImage" />
<dc:title></dc:title>
</cc:Work>
</rdf:RDF>
</metadata>
<defs
 id="defs2550" />
<sodipodi:namedview
 pagecolor="#ffffff"
 bordercolor="#666666"
 borderopacity="1"
 objecttolerance="10"
 gridtolerance="10"
 guidetolerance="10"
 inkscape:pageopacity="0"
 inkscape:pageshadow="2"
 inkscape:window-width="1920"
 inkscape:window-height="1017"
 id="namedview2548"
 showgrid="false"
 inkscape:zoom="1.4254587"
 inkscape:cx="122.00161"
 inkscape:cy="236"
 inkscape:window-x="-8"
 inkscape:window-y="-8"
 inkscape:window-maximized="1"
 inkscape:current-layer="svg2546" />
<path
 style="fill:#000000;stroke:none;stroke-width:1px;stroke-linecap:butt;stroke-linejoin:miter;stroke-opacity:1;fill-opacity:1"
 d="M 88.392599,135.96782 C 87.691071,138.77393 84.183428,152.8045 84.183428,152.8045 L 101.02011,175.25342 150.12711,161.92437 143.81336,400.44409 C 143.81336,400.44409 135.39501,401.14561 140.30571,404.65326 145.21641,408.1609 155.03781,434.81899 155.03781,434.81899 155.03781,434.81899 153.63476,452.3572 162.75463,441.13274 171.8745,429.90829 172.57603,410.96701 172.57603,410.96701 L 164.85921,260.8399 C 164.85921,260.8399 155.03781,189.28399 163.45616,181.56717 171.8745,173.85036 188.71118,166.13355 183.80048,154.20756 178.88978,142.28157 178.88978,142.9831 173.97908,140.87852 169.06838,138.77393 154.33628,132.46017 154.33628,132.46017 L 124.17056,140.87852 89.094128,132.46017 Z"
 id="path2556"
 inkscape:connector-curvature="0" />
<path
 style="fill:#000000;stroke:none;stroke-width:1px;stroke-linecap:butt;stroke-linejoin:miter;stroke-opacity:1;fill-opacity:1"
 d="M 117.8568,205.41915 95.407885,216.6436 96.109413,236.98793 124.87208,252.42156 132.5889,239.79404 C 132.5889,239.79404 122.7675,233.48029 126.27514,222.95736 129.78278,212.43443 129.78278,204.71762 129.78278,204.71762 Z"
 id="path2558"
 inkscape:connector-curvature="0" />
<path
 style="fill:#000000;stroke:none;stroke-width:1px;stroke-linecap:butt;stroke-linejoin:miter;stroke-opacity:1;fill-opacity:1"
 d="M 23.851971,204.01609 46.300885,232.77876 55.420757,265.7506 C 55.420757,265.7506 55.420757,344.3218 55.420757,348.53097 55.420757,352.74014 54.719228,372.38294 54.719228,372.38294 L 11.224457,391.32422 C 11.224457,391.32422 9.1198713,397.63797 11.925986,399.74256 14.7321,401.84714 31.568785,423.59453 31.568785,423.59453 31.568785,423.59453 35.076428,434.81899 43.494771,429.90829 51.913114,424.99759 67.346742,406.05631 67.346742,406.05631 67.346742,406.05631 67.346742,414.47466 70.152857,413.0716 72.958971,411.66854 75.063556,398.3395 75.063556,398.3395 L 119.25986,352.74014 C 122.06597,354.1432 143.11183,324.679 138.20113,326.08206 133.29043,327.48512 77.168142,360.45696 77.168142,360.45696 77.168142,360.45696 61.032985,293.11022 70.152857,296.61786 79.272728,300.1255 116.45374,320.46983 119.25986,317.66372 122.06597,314.8576 139.60418,284.69187 126.97667,279.07964 114.34916,273.46742 89.795656,288.19952 89.795656,288.19952 H 68.048271 L 73.660499,241.1971 C 73.660499,241.1971 92.601771,225.06195 77.168142,219.44972 61.734514,213.83749 25.956557,205.41915 25.956557,205.41915 Z"
 id="path2560"
 inkscape:connector-curvature="0" />
<path
 style="fill:#000000;stroke:none;stroke-width:1px;stroke-linecap:butt;stroke-linejoin:miter;stroke-opacity:1;fill-opacity:1"
 d="M 294.642,35.649233 C 301.65728,41.96299 313.58327,45.470632 310.07563,55.993561 306.56798,66.516489 313.58327,133.1617 313.58327,133.1617 L 308.67257,146.49075 283.41754,153.50603 237.81818,142.9831 253.95334,175.95495 C 253.95334,175.95495 254.65487,194.19469 271.49155,185.77635 288.32824,177.358 312.18021,166.83507 312.18021,166.83507 L 321.30008,187.88093 309.3741,201.20997 249.74417,218.04666 C 249.74417,218.04666 216.0708,206.8222 215.36927,209.62832 214.66774,212.43443 211.1601,219.44972 211.1601,222.95736 211.1601,226.465 221.68303,248.91392 221.68303,248.91392 221.68303,248.91392 226.59373,262.94449 235.7136,254.52614 244.83347,246.1078 258.16251,236.98793 258.16251,236.98793 L 318.49397,211.03137 361.98874,196.29927 C 361.98874,196.29927 395.66211,192.0901 393.55753,194.89622 391.45294,197.70233 390.04988,211.7329 390.04988,211.7329 L 432.84312,197.0008 C 432.84312,197.0008 446.17217,205.41915 452.48592,200.50845 458.79968,195.59775 460.90427,184.37329 460.90427,184.37329 460.90427,184.37329 423.72325,166.83507 411.79727,170.34272 399.87128,173.85036 353.5704,189.98552 353.5704,189.98552 L 343.04747,196.29927 336.03218,152.10297 380.22848,137.37087 407.5881,123.3403 396.36364,114.92196 C 396.36364,114.92196 385.13918,112.81737 374.61625,117.02655 364.09333,121.23572 348.6597,131.05712 348.6597,131.05712 L 338.13677,133.86323 349.36123,59.501204 361.28721,44.769104 350.06275,46.87369 324.1062,23.723247 311.47868,20.917133 298.85117,27.932418 Z"
 id="path2562"
 inkscape:connector-curvature="0" />
<path
 style="fill:#000000;stroke:none;stroke-width:1px;stroke-linecap:butt;stroke-linejoin:miter;stroke-opacity:1;fill-opacity:1"
 d="M 266.58085,251.72003 251.14723,281.18423 225.8922,309.24537 267.98391,302.23009 288.32824,295.2148 V 267.85519 Z"
 id="path2564"
 inkscape:connector-curvature="0" />
<path
 style="fill:#000000;stroke:none;stroke-width:1px;stroke-linecap:butt;stroke-linejoin:miter;stroke-opacity:1;fill-opacity:1"
 d="M 337.43524,225.06195 348.6597,250.31697 366.19791,274.16894 C 366.19791,274.16894 395.66211,279.78117 399.16975,279.07964 402.6774,278.37812 425.12631,276.27353 425.12631,276.27353 L 418.11102,265.7506 403.37892,258.03379 364.09333,248.21239 350.76428,227.16653 Z"
 id="path2568"
 inkscape:connector-curvature="0" />
<path
 style="fill:#000000;stroke:none;stroke-width:1px;stroke-linecap:butt;stroke-linejoin:miter;stroke-opacity:1;fill-opacity:1"
 d="M 237.81818,342.21722 261.67015,362.56154 C 261.67015,362.56154 270.79003,370.27836 276.40225,369.57683 282.01448,368.8753 307.97104,354.84473 307.97104,354.84473 L 314.98633,357.65084 C 314.98633,357.65084 316.38938,385.01046 316.38938,388.5181 316.38938,392.02574 293.94047,396.23491 291.13435,397.63797 288.32824,399.04103 244.13194,404.65326 244.13194,404.65326 L 235.01207,403.2502 235.7136,416.57924 251.84875,441.83427 C 251.84875,441.83427 259.56557,447.4465 267.98391,441.83427 276.40225,436.22204 290.43283,424.29606 293.23894,423.59453 296.04505,422.893 354.97345,409.56396 354.97345,409.56396 H 385.84071 C 385.84071,409.56396 416.70797,422.893 420.21561,422.893 423.72325,422.893 435.64924,426.40064 436.35077,419.38536 437.0523,412.37007 439.85841,403.95173 439.85841,403.95173 439.85841,403.95173 433.54465,394.83186 425.12631,389.92116 416.70797,385.01046 390.75141,375.89059 390.75141,375.89059 L 370.40708,377.99517 C 370.40708,377.99517 347.95817,385.71199 347.95817,382.90587 347.95817,380.09976 340.24135,345.02333 345.15205,338.70957 350.06275,332.39582 378.1239,324.679 378.1239,324.679 L 397.7667,312.05149 396.36364,304.33467 378.82543,300.82703 C 378.82543,300.82703 359.88415,298.72244 356.37651,300.82703 352.86887,302.93162 344.45053,312.05149 344.45053,312.05149 L 337.43524,309.24537 C 337.43524,309.24537 332.52454,302.93162 329.71843,302.23009 326.91231,301.52856 311.47868,300.82703 311.47868,300.82703 L 305.16493,297.31939 299.5527,305.73773 C 299.5527,305.73773 304.4634,307.14079 304.4634,311.34996 304.4634,315.55913 305.86645,325.38053 305.86645,325.38053 305.86645,325.38053 303.06034,327.48512 298.14964,328.88817 293.23894,330.29123 277.80531,335.20193 277.80531,335.20193 L 263.77474,340.81416 250.4457,341.51569 Z"
 id="path2570"
 inkscape:connector-curvature="0" />
</svg>
