<?xml version="1.0" encoding="UTF-8" standalone="no"?>
<!-- Created with Inkscape (http://www.inkscape.org/) -->

<svg
   xmlns:dc="http://purl.org/dc/elements/1.1/"
   xmlns:cc="http://creativecommons.org/ns#"
   xmlns:rdf="http://www.w3.org/1999/02/22-rdf-syntax-ns#"
   xmlns:svg="http://www.w3.org/2000/svg"
   xmlns="http://www.w3.org/2000/svg"
   xmlns:sodipodi="http://sodipodi.sourceforge.net/DTD/sodipodi-0.dtd"
   xmlns:inkscape="http://www.inkscape.org/namespaces/inkscape"
   version="1.1"
   id="svg2564"
   width="533"
   height="533"
   viewBox="0 0 533 533"
   sodipodi:docname="U+8A13.svg"
   inkscape:version="0.92.4 (5da689c313, 2019-01-14)">
  <metadata
     id="metadata2570">
    <rdf:RDF>
      <cc:Work
         rdf:about="">
        <dc:format>image/svg+xml</dc:format>
        <dc:type
           rdf:resource="http://purl.org/dc/dcmitype/StillImage" />
        <dc:title></dc:title>
      </cc:Work>
    </rdf:RDF>
  </metadata>
  <defs
     id="defs2568" />
  <sodipodi:namedview
     pagecolor="#ffffff"
     bordercolor="#666666"
     borderopacity="1"
     objecttolerance="10"
     gridtolerance="10"
     guidetolerance="10"
     inkscape:pageopacity="0"
     inkscape:pageshadow="2"
     inkscape:window-width="1680"
     inkscape:window-height="988"
     id="namedview2566"
     showgrid="false"
     inkscape:zoom="1.52"
     inkscape:cx="219.39328"
     inkscape:cy="258.2261"
     inkscape:window-x="-8"
     inkscape:window-y="-8"
     inkscape:window-maximized="1"
     inkscape:current-layer="svg2564">
    <inkscape:grid
       type="xygrid"
       id="grid3117" />
  </sodipodi:namedview>
  <path
     style="fill:#000000;fill-opacity:1;stroke:none;stroke-width:1px;stroke-linecap:butt;stroke-linejoin:miter;stroke-opacity:1"
     d="M 142.10526,49.447368 C 146.05263,50.105263 175.65789,54.710526 175.65789,54.710526 L 200,73.131579 211.18421,94.842105 207.23684,110.63158 251.31579,103.39474 263.81579,113.26316 265.78947,121.81579 257.23684,127.73684 C 257.23684,127.73684 232.73987,126.8595 220.39474,127.73684 185.47742,130.21834 119.07895,150.76316 119.07895,150.76316 L 71.052632,167.21053 53.947368,174.44737 40.131579,191.55263 22.368421,186.28947 1.9736842,142.86842 9.8684211,140.23684 34.210526,144.84211 46.710526,146.15789 174.34211,118.52632 176.31579,109.31579 157.89474,91.552632 144.07895,82.342105 135.52632,67.868421 Z"
     id="path3119"
     inkscape:connector-curvature="0"
     sodipodi:nodetypes="cccccccccsccccccccccccccc" />
  <path
     style="fill:#000000;stroke:none;stroke-width:1px;stroke-linecap:butt;stroke-linejoin:miter;stroke-opacity:1;fill-opacity:1"
     d="M 121.71053,192.86842 132.23684,197.47368 167.76316,181.02632 189.47368,184.97368 195.39474,192.21053 187.5,197.47368 161.84211,213.92105 149.34211,231.02632 130.92105,220.5 120.39474,202.73684 Z"
     id="path3121"
     inkscape:connector-curvature="0" />
  <path
     style="fill:#000000;stroke:none;stroke-width:1px;stroke-linecap:butt;stroke-linejoin:miter;stroke-opacity:1;fill-opacity:1"
     d="M 101.97368,260.63158 114.47368,264.57895 147.36842,248.78947 157.89474,237.60526 190.78947,250.10526 198.68421,261.28947 188.15789,273.13158 H 178.28947 L 122.36842,307.34211 113.81579,300.76316 104.60526,283 92.763158,274.44737 96.710526,262.60526 Z"
     id="path3123"
     inkscape:connector-curvature="0" />
  <path
     style="fill:#000000;stroke:none;stroke-width:1px;stroke-linecap:butt;stroke-linejoin:miter;stroke-opacity:1;fill-opacity:1"
     d="M 124.34211,336.28947 141.44737,340.89474 174.34211,322.47368 182.23684,308.65789 215.13158,317.21053 220.39474,323.78947 210.52632,341.55263 203.94737,361.28947 205.92105,381.68421 230.26316,388.26316 241.44737,401.42105 231.57895,408 200,406.02632 165.78947,421.81579 137.5,420.5 149.34211,438.26316 153.94737,465.89474 149.34211,471.81579 143.42105,472.47368 119.73684,427.73684 105.26316,400.10526 82.236842,373.13158 73.684211,369.18421 70.394737,350.76316 84.210526,351.42105 105.92105,357.34211 128.28947,371.81579 129.60526,392.86842 139.47368,404.05263 180.26316,386.94737 186.18421,386.28947 180.26316,351.42105 170.39474,354.05263 153.94737,364.57895 131.57895,346.81579 Z"
     id="path3125"
     inkscape:connector-curvature="0" />
  <path
     style="fill:#000000;stroke:none;stroke-width:1px;stroke-linecap:butt;stroke-linejoin:miter;stroke-opacity:1;fill-opacity:1"
     d="M 234.86842,201.42105 253.28947,200.76316 280.92105,196.15789 314.47368,215.89474 313.15789,237.60526 319.07895,261.28947 305.92105,333 280.92105,389.57895 254.60526,393.52632 264.47368,374.44737 284.21053,356.68421 298.02632,293.52632 V 245.5 C 298.02632,245.5 276.7979,242.8478 265.13158,236.94737 258.28513,233.48466 242.10526,218.52632 242.10526,218.52632 Z"
     id="path3127"
     inkscape:connector-curvature="0"
     sodipodi:nodetypes="cccccccccccccscc" />
  <path
     style="fill:#000000;stroke:none;stroke-width:1px;stroke-linecap:butt;stroke-linejoin:miter;stroke-opacity:1;fill-opacity:1"
     d="M 336.8421,144.18421 C 371.71053,137.60526 371.71053,137.60526 371.71053,137.60526 L 384.21053,138.26316 400,154.71053 413.81579,168.52632 413.15789,177.73684 403.28947,190.23684 391.44737,265.89474 394.73684,321.81579 401.97368,359.97368 397.36842,375.10526 382.89474,368.52632 370.39474,326.42105 H 376.97368 L 381.57895,292.86842 V 248.78947 175.76316 L 376.97368,167.86842 358.55263,162.60526 C 358.55263,162.60526 327.51583,145.94388 336.8421,144.18421 Z"
     id="path3129"
     inkscape:connector-curvature="0"
     sodipodi:nodetypes="sccccccccccccccccccs" />
  <path
     style="fill:#000000;stroke:none;stroke-width:1px;stroke-linecap:butt;stroke-linejoin:miter;stroke-opacity:1;fill-opacity:1"
     d="M 464.47368,92.868421 471.05263,74.447368 495.39474,72.473684 515.78947,93.526316 513.15789,107.34211 498.68421,127.07895 479.60526,189.57895 473.68421,252.73684 C 473.68421,252.73684 479.60526,338.26316 480.92105,342.21053 482.23684,346.15789 492.10526,432.34211 492.10526,432.34211 L 513.81579,479.71053 505.92105,511.28947 494.07895,504.71053 476.31579,461.94737 466.44737,438.26316 458.55263,430.36842 467.76316,433 478.94737,417.86842 471.71053,328.39474 466.44737,265.89474 C 466.44737,265.89474 463.81579,217.86842 463.81579,215.23684 463.81579,212.60526 463.81579,173.13158 463.81579,173.13158 L 471.05263,121.81579 478.28947,101.42105 Z"
     id="path3131"
     inkscape:connector-curvature="0" />
  <path
     style="fill:none;stroke:#000000;stroke-width:1px;stroke-linecap:butt;stroke-linejoin:miter;stroke-opacity:1"
     d="M 402.63158,206.02632 Z"
     id="path3133"
     inkscape:connector-curvature="0" />
</svg>
