<?xml version="1.0" encoding="UTF-8" standalone="no"?>
<!-- Created with Inkscape (http://www.inkscape.org/) -->

<svg
   xmlns:dc="http://purl.org/dc/elements/1.1/"
   xmlns:cc="http://creativecommons.org/ns#"
   xmlns:rdf="http://www.w3.org/1999/02/22-rdf-syntax-ns#"
   xmlns:svg="http://www.w3.org/2000/svg"
   xmlns="http://www.w3.org/2000/svg"
   xmlns:sodipodi="http://sodipodi.sourceforge.net/DTD/sodipodi-0.dtd"
   xmlns:inkscape="http://www.inkscape.org/namespaces/inkscape"
   version="1.1"
   id="svg10"
   width="542"
   height="541"
   viewBox="0 0 542 541"
   sodipodi:docname="U+8CE4.svg"
   inkscape:version="0.92.4 (5da689c313, 2019-01-14)">
  <metadata
     id="metadata16">
    <rdf:RDF>
      <cc:Work
         rdf:about="">
        <dc:format>image/svg+xml</dc:format>
        <dc:type
           rdf:resource="http://purl.org/dc/dcmitype/StillImage" />
        <dc:title></dc:title>
      </cc:Work>
    </rdf:RDF>
  </metadata>
  <defs
     id="defs14">
    <inkscape:path-effect
       effect="bspline"
       id="path-effect32"
       is_visible="true"
       weight="33.333333"
       steps="2"
       helper_size="0"
       apply_no_weight="true"
       apply_with_weight="true"
       only_selected="false" />
  </defs>
  <sodipodi:namedview
     pagecolor="#ffffff"
     bordercolor="#666666"
     borderopacity="1"
     objecttolerance="10"
     gridtolerance="10"
     guidetolerance="10"
     inkscape:pageopacity="0"
     inkscape:pageshadow="2"
     inkscape:window-width="1920"
     inkscape:window-height="1017"
     id="namedview12"
     showgrid="false"
     inkscape:zoom="1.5839192"
     inkscape:cx="164.02088"
     inkscape:cy="271.00151"
     inkscape:window-x="-8"
     inkscape:window-y="-8"
     inkscape:window-maximized="1"
     inkscape:current-layer="svg10" />
  <path
     style="fill:none;stroke:#000000;stroke-width:1px;stroke-linecap:butt;stroke-linejoin:miter;stroke-opacity:1"
     d="M 58.083771,164.08683 Z"
     id="path34"
     inkscape:connector-curvature="0" />
  <path
     style="fill:none;stroke:#000000;stroke-width:1px;stroke-linecap:butt;stroke-linejoin:miter;stroke-opacity:1"
     d="M 56.821081,157.77338 47.982246,183.65854 51.770318,207.01831 62.503189,215.85715 70.710678,252.47518 68.816642,296.03801 62.503189,326.97393 70.079333,342.75756"
     id="path36"
     inkscape:connector-curvature="0" />
  <path
     style="fill:#000000;stroke:none;stroke-width:1px;stroke-linecap:butt;stroke-linejoin:miter;stroke-opacity:1;fill-opacity:1"
     d="M 70.079333,342.75756 72.604714,353.49043 39.143411,366.11734 56.189735,333.28738 C 56.189735,333.28738 23.359778,357.27851 23.991123,360.43523 24.622468,363.59196 18.309015,377.48156 18.309015,377.48156 L 32.829958,390.73981 48.613591,389.47712 125.63772,347.80833 130.05714,353.49043 91.545074,395.79057 24.622468,463.34452 37.249375,463.97587 61.240498,444.40416 105.43467,406.52344 147.73481,356.64716 C 147.73481,356.64716 149.62885,341.49487 153.41692,340.23218 157.20499,338.96949 164.14979,335.81276 164.14979,335.81276 L 171.09459,345.28294 166.04382,364.85465 158.46768,371.1681 140.79001,364.2233 149.62885,390.10846 136.37059,389.47712 152.15423,417.25631 158.46768,449.45493 181.19611,474.07739 201.39916,477.86547 208.34396,459.55645 194.45436,431.77726 186.24688,352.85909 191.29764,263.8394 200.13647,185.55257 210.86934,162.82414 184.98418,131.25687 126.26907,143.25244 90.282384,145.77782 105.43467,169.76894 119.32427,171.66298 149.62885,156.51069 171.72593,152.09127 178.03939,157.14203 171.09459,172.29432 C 171.09459,172.29432 179.30208,177.97643 179.30208,180.50181 179.30208,183.02719 169.8319,198.17948 169.8319,198.17948 L 168.56921,259.41998 167.30652,291.61859 140.15867,309.92761 121.21831,326.97393 C 121.21831,326.97393 92.17642,344.6516 91.545074,342.12622 90.913729,339.60084 87.125657,311.82164 87.125657,311.82164 L 102.90929,301.72012 142.0527,278.36034 154.04826,260.68267 147.10346,252.47518 111.74813,265.73343 95.333146,259.41998 82.70624,208.28101 82.074894,182.39585 68.816642,162.1928 56.821081,157.77338 V 157.77338 157.77338 157.77338 L 68.816642,162.1928 56.821081,157.77338"
     id="path38"
     inkscape:connector-curvature="0" />
  <path
     style="fill:none;stroke:#000000;stroke-width:1px;stroke-linecap:butt;stroke-linejoin:miter;stroke-opacity:1"
     d="M 61.240498,87.694046 Z"
     id="path40"
     inkscape:connector-curvature="0" />
  <path
     style="fill:#000000;stroke:#000000;stroke-width:1px;stroke-linecap:butt;stroke-linejoin:miter;stroke-opacity:1;fill-opacity:1"
     d="M 56.821081,157.77338 47.982246,183.65854 51.770318,207.01831 62.503189,215.85715 71.973369,172.92567 Z"
     id="path847"
     inkscape:connector-curvature="0" />
  <path
     style="fill:#000000;stroke:#000000;stroke-width:1px;stroke-linecap:butt;stroke-linejoin:miter;stroke-opacity:1;fill-opacity:1"
     d="M 68.185297,303.61415 62.503189,326.97393 70.079333,342.75756 85.231621,328.23662 Z"
     id="path849"
     inkscape:connector-curvature="0" />
  <path
     style="fill:#000000;stroke:none;stroke-width:1px;stroke-linecap:butt;stroke-linejoin:miter;stroke-opacity:1;fill-opacity:1"
     d="M 125.63772,203.86159 98.489873,215.85715 112.37947,226.59002 109.85409,243.005 122.481,227.85271 140.79001,220.90791 142.0527,211.43773 Z"
     id="path851"
     inkscape:connector-curvature="0" />
  <path
     style="fill:none;stroke:#000000;stroke-width:1px;stroke-linecap:butt;stroke-linejoin:miter;stroke-opacity:1"
     d="M 417.31927,239.21693 424.26407,234.16616 Z"
     id="path861"
     inkscape:connector-curvature="0" />
  <path
     style="fill:none;stroke:#000000;stroke-width:1px;stroke-linecap:butt;stroke-linejoin:miter;stroke-opacity:1"
     d="M 409.74313,437.45936 426.78945,470.92067 V 470.92067 Z"
     id="path865"
     inkscape:connector-curvature="0" />
  <path
     style="fill:#000000;stroke:none;stroke-width:1px;stroke-linecap:butt;stroke-linejoin:miter;stroke-opacity:1;fill-opacity:1"
     d="M 255.69486,9.4072234 243.06796,18.877404 244.96199,35.923728 267.69042,46.656599 287.89348,63.071577 327.03689,134.4136 289.15617,148.93454 274.00388,142.62109 265.16504,153.35396 271.4785,171.66298 289.78751,188.07795 302.41442,186.81526 309.35922,164.08683 335.24438,154.61665 359.2355,188.07795 352.2907,200.70486 316.93536,236.69155 C 316.93536,236.69155 335.87572,236.69155 342.18917,231.00944 348.50263,225.32733 363.02357,212.70042 366.81164,212.70042 370.59971,212.70042 384.48931,217.75119 384.48931,217.75119 L 393.95949,229.1154 417.31927,239.21693 C 417.31927,239.21693 424.26407,234.16616 424.26407,234.16616 L 418.58196,215.85715 393.32815,192.49737 408.48044,171.03163 424.26407,163.45549 428.05214,133.15091 410.37447,121.78669 376.91317,177.97643 356.07877,148.93454 358.60415,126.20611 C 358.60415,126.20611 403.42967,106.00306 405.32371,102.84633 407.21774,99.689607 413.5312,90.219427 413.5312,90.219427 L 388.90873,87.0627 343.45187,118.62997 311.25325,45.393908 309.99056,29.610274 280.94868,15.089331 Z"
     id="path867"
     inkscape:connector-curvature="0" />
  <path
     style="fill:none;stroke:#000000;stroke-width:1px;stroke-linecap:butt;stroke-linejoin:miter;stroke-opacity:1"
     d="M 294.20693,204.49293 272.74119,214.59446 266.42773,237.95424 C 266.42773,237.95424 287.89348,260.05132 292.31289,263.8394 296.73231,267.62747 314.40998,294.77532 314.40998,294.77532 L 266.42773,323.8172 254.43217,307.40222 239.27988,322.55451 264.5337,355.38447 278.4233,366.74869"
     id="path869"
     inkscape:connector-curvature="0" />
  <path
     style="fill:#000000;fill-opacity:1;stroke:none;stroke-width:1px;stroke-linecap:butt;stroke-linejoin:miter;stroke-opacity:1"
     d="M 278.4233,366.74869 C 278.4233,366.74869 316.30401,319.39778 311.25325,316.8724 306.20249,314.34702 328.93092,325.07989 328.93092,325.07989 L 278.4233,366.74869 332.08765,325.07989 354.81608,368.64272 293.57558,422.30708 254.43217,433.67129 229.17836,427.98918 235.49181,458.92511 C 235.49181,458.92511 232.33509,470.92067 253.80083,463.34452 275.26657,455.76838 324.5115,418.519 324.5115,418.519 L 357.97281,380.00694 416.05658,455.76838 440.0477,490.49237 501.2882,525.21637 513.28376,524.58502 517.07183,514.4835 504.44493,496.17448 427.4208,438.09071 375.65048,372.43079 V 361.69792 L 421.10734,301.08877 410.37447,296.03801 364.28626,353.49043 342.18917,313.71568 404.06102,266.36478 402.79833,258.15729 319.46074,227.22137 316.93536,236.69155 368.70568,260.68267 327.03689,286.56783 306.20249,241.11096 315.04132,223.43329 294.20693,204.49293 V 204.49293 L 313.77863,221.53926 296.10096,243.005 327.03689,286.56783"
     id="path871"
     inkscape:connector-curvature="0"
     sodipodi:nodetypes="csccccccccscccccccccccccccccccccccccccc" />
  <path
     style="fill:none;stroke:#000000;stroke-width:1px;stroke-linecap:butt;stroke-linejoin:miter;stroke-opacity:1"
     d="M 261.37697,171.66298 Z"
     id="path873"
     inkscape:connector-curvature="0" />
  <path
     style="fill:#000000;stroke:#000000;stroke-width:1px;stroke-linecap:butt;stroke-linejoin:miter;stroke-opacity:1;fill-opacity:1"
     d="M 285.36809,251.21249 294.20693,204.49293 315.04132,223.43329 Z"
     id="path875"
     inkscape:connector-curvature="0" />
  <path
     style="fill:#000000;stroke:none;stroke-width:1px;stroke-linecap:butt;stroke-linejoin:miter;stroke-opacity:1;fill-opacity:1"
     d="M 294.20693,204.49293 272.74119,214.59446 266.42773,237.95424 314.40998,294.77532 Z"
     id="path879"
     inkscape:connector-curvature="0" />
  <path
     style="fill:#000000;fill-opacity:1;stroke:#000000;stroke-width:1px;stroke-linecap:butt;stroke-linejoin:miter;stroke-opacity:1"
     d="M 303.04576,259.41998 C 303.04576,261.94536 314.40998,294.77532 314.40998,294.77532 L 266.42773,323.8172 239.27988,322.55451 264.5337,355.38447 C 264.5337,355.38447 272.37618,366.7639 277.79195,364.22331 296.01812,355.67324 332.08765,325.07989 332.08765,325.07989 Z"
     id="path881"
     inkscape:connector-curvature="0"
     sodipodi:nodetypes="cccccscc" />
  <path
     style="fill:#000000;stroke:#000000;stroke-width:1px;stroke-linecap:butt;stroke-linejoin:miter;stroke-opacity:1;fill-opacity:1"
     d="M 303.04576,259.41998 318.8294,304.2455 327.03689,286.56783 306.20249,249.9498"
     id="path883"
     inkscape:connector-curvature="0" />
  <path
     style="fill:#000000;fill-opacity:1;stroke:#000000;stroke-width:1px;stroke-linecap:butt;stroke-linejoin:miter;stroke-opacity:1"
     d="M 239.27988,322.55451 C 239.27988,322.55451 246.67922,305.58894 253.80082,306.13953 260.55762,306.66192 273.37253,330.762 273.37253,330.762 L 239.27988,322.55451"
     id="path885"
     inkscape:connector-curvature="0"
     sodipodi:nodetypes="cscc" />
  <path
     style="fill:#000000;fill-opacity:1;stroke:#000000;stroke-width:1px;stroke-linecap:butt;stroke-linejoin:miter;stroke-opacity:1"
     d="M 436.89098,35.923728 C 445.72981,42.868526 450.14923,50.444671 450.14923,50.444671 L 483.61053,58.020815 C 483.61053,58.020815 512.02107,94.638844 512.02107,97.795571 512.02107,100.9523 514.93926,122.00336 505.07627,123.68073 480.6794,127.82984 451.41192,70.016376 451.41192,70.016376 L 437.52232,46.656599 Z"
     id="path887"
     inkscape:connector-curvature="0"
     sodipodi:nodetypes="cccssccc" />
</svg>
