<?xml version="1.0" encoding="UTF-8" standalone="no"?>
<!-- Created with Inkscape (http://www.inkscape.org/) -->

<svg
   xmlns:dc="http://purl.org/dc/elements/1.1/"
   xmlns:cc="http://creativecommons.org/ns#"
   xmlns:rdf="http://www.w3.org/1999/02/22-rdf-syntax-ns#"
   xmlns:svg="http://www.w3.org/2000/svg"
   xmlns="http://www.w3.org/2000/svg"
   xmlns:sodipodi="http://sodipodi.sourceforge.net/DTD/sodipodi-0.dtd"
   xmlns:inkscape="http://www.inkscape.org/namespaces/inkscape"
   version="1.1"
   id="svg1450"
   width="570"
   height="570"
   viewBox="0 0 570 570"
   sodipodi:docname="U+96A8.svg"
   inkscape:version="0.92.4 (5da689c313, 2019-01-14)">
  <metadata
     id="metadata1456">
    <rdf:RDF>
      <cc:Work
         rdf:about="">
        <dc:format>image/svg+xml</dc:format>
        <dc:type
           rdf:resource="http://purl.org/dc/dcmitype/StillImage" />
        <dc:title></dc:title>
      </cc:Work>
    </rdf:RDF>
  </metadata>
  <defs
     id="defs1454" />
  <sodipodi:namedview
     pagecolor="#ffffff"
     bordercolor="#666666"
     borderopacity="1"
     objecttolerance="10"
     gridtolerance="10"
     guidetolerance="10"
     inkscape:pageopacity="0"
     inkscape:pageshadow="2"
     inkscape:window-width="1920"
     inkscape:window-height="1017"
     id="namedview1452"
     showgrid="false"
     inkscape:zoom="1.0074671"
     inkscape:cx="123.7044"
     inkscape:cy="285"
     inkscape:window-x="-8"
     inkscape:window-y="-8"
     inkscape:window-maximized="1"
     inkscape:current-layer="svg1450" />
  <path
     style="fill:#000000;stroke:none;stroke-width:1px;stroke-linecap:butt;stroke-linejoin:miter;stroke-opacity:1;fill-opacity:1"
     d="M 29.777649,74.698444 C 36.725767,76.68362 57.570121,88.59468 57.570121,88.59468 L 136.97718,56.831855 149.88083,76.68362 152.8586,98.520563 116.13283,133.26115 102.23659,160.06104 122.08836,179.9128 133.00683,207.70527 134.99201,237.48292 128.04389,244.43104 60.547886,212.66822 61.540474,255.34951 57.570121,366.5194 39.703532,452.87458 23.822119,491.58553 14.888824,481.65964 25.807296,436.00058 41.688708,365.52681 42.681296,276.19387 43.673885,198.77198 29.777648,159.06844 6.948118,154.10551 26.799884,136.23892 51.614591,148.14998 55.584944,199.76457 76.429298,208.69786 117.12542,193.80904 91.318123,170.97951 C 91.318123,170.97951 83.377416,174.94986 83.377416,168.00174 83.377416,161.05362 79.407063,142.19445 79.407063,142.19445 L 103.22918,112.4168 114.14765,87.602092 79.407063,105.46868 66.503415,124.32786 59.555297,125.32045 30.770237,106.46127 24.814707,95.542798 Z"
     id="path1460"
     inkscape:connector-curvature="0"
     sodipodi:nodetypes="cccccccccccccccccccccccccccccsccccccccc" />
  <path
     style="fill:#000000;stroke:none;stroke-width:1px;stroke-linecap:butt;stroke-linejoin:miter;stroke-opacity:1;fill-opacity:1"
     d="M 182.63625,71.720679 180.65107,90.579856 202.48801,115.39457 230.28049,103.48351 285.86543,82.63915 290.82837,90.579856 239.21378,183.88316 144.91789,259.31987 137.96977,257.33469 139.95495,279.17163 162.78448,281.15681 187.59919,255.34951 212.41389,248.40139 264.02848,182.89057 267.99884,198.77198 C 267.99884,198.77198 265.02107,300.01599 263.0359,307.95669 261.05072,315.8974 255.09519,335.74916 255.09519,335.74916 L 273.95437,356.59352 286.85802,342.69728 282.88766,326.81587 274.94696,277.18645 328.54672,281.15681 339.46519,270.23834 322.59119,257.33469 307.70237,254.35692 282.88766,257.33469 284.87284,221.60151 305.71719,204.72751 321.59861,205.7201 342.44296,189.83869 338.47261,183.88316 321.59861,179.9128 290.82837,192.81645 292.81355,175.94245 274.94696,173.95727 290.82837,145.17221 310.68013,148.14998 338.47261,139.21668 351.37625,141.20186 352.36884,160.06104 345.42072,344.68246 358.32437,370.48975 367.25767,366.5194 371.22802,331.77881 370.23543,193.80904 378.17614,148.14998 370.23543,134.25374 344.42814,120.35751 294.79872,136.23892 321.59861,72.713267 380.16131,63.779973 418.87226,63.779973 419.86484,42.935619 371.22802,34.002324 345.42072,51.868913 H 327.55414 L 294.79872,33.009736 262.04331,34.002324 260.05813,39.957854 C 260.05813,39.957854 266.01366,49.883737 272.96178,52.861501 279.9099,55.839266 289.83578,68.742914 289.83578,68.742914 L 245.16931,77.676209 207.45095,90.579856 194.5473,75.691032 Z"
     id="path1462"
     inkscape:connector-curvature="0"
     sodipodi:nodetypes="cccccccccccccccscccccccccccccccccccccccccccccccccccccccccccsccccc" />
  <path
     style="fill:none;stroke:#000000;stroke-width:1px;stroke-linecap:butt;stroke-linejoin:miter;stroke-opacity:1"
     d="M 490.33861,264.28281 Z"
     id="path1464"
     inkscape:connector-curvature="0" />
  <path
     style="fill:#000000;stroke:none;stroke-width:1px;stroke-linecap:butt;stroke-linejoin:miter;stroke-opacity:1;fill-opacity:1"
     d="M 152.8586,164.03139 163.77707,176.93504 162.78448,195.79422 190.57695,172.96468 171.71777,160.06104 Z"
     id="path1466"
     inkscape:connector-curvature="0" />
  <path
     style="fill:#000000;stroke:none;stroke-width:1px;stroke-linecap:butt;stroke-linejoin:miter;stroke-opacity:1;fill-opacity:1"
     d="M 155.83636,314.90481 C 155.83636,314.90481 178.66589,340.71211 178.66589,344.68246 178.66589,348.65281 182.63625,371.48234 182.63625,371.48234 L 154.84377,364.53422 H 139.95495 L 131.02165,381.40823 C 131.02165,381.40823 133.99942,400.2674 143.9253,400.2674 153.85118,400.2674 179.65848,385.37858 179.65848,385.37858 L 204.47319,402.25258 257.08037,431.03764 357.33178,452.87458 C 357.33178,452.87458 415.89449,476.6967 415.89449,472.72635 415.89449,468.75599 431.77591,444.93388 431.77591,444.93388 L 558.82721,420.11917 489.34603,416.14882 411.92414,411.18587 H 317.62825 L 270.9766,412.17846 199.51025,383.3934 205.46578,348.65281 176.68072,318.87516 161.79189,309.94187 Z"
     id="path1468"
     inkscape:connector-curvature="0" />
</svg>
