<?xml version="1.0" standalone="no"?>
<!DOCTYPE svg PUBLIC "-//W3C//DTD SVG 1.1//EN" "http://www.w3.org/Graphics/SVG/1.1/DTD/svg11.dtd" >
<svg xmlns="http://www.w3.org/2000/svg" xmlns:xlink="http://www.w3.org/1999/xlink" version="1.1" viewBox="0 0 256 256">
  <g transform="matrix(1 0 0 -1 0 204)">
   <path fill="currentColor"
d="M187 116q5 0 9 5q3 5 13 2q12 -5 19 -8q2 -2 1 -5q-2 -3 -4 -2q-18 5 -47 1q-21 -1 -42 -12q0 -2 -1 -6v-12q25 4 39 5q5 1 24 -14q4 -6 -3 -9q-7 -1 -9 -7q-6 -19 -32 -34q-7 -3 -16 6q-4 3 2 2q11 -3 20 3q19 15 22 40q-2 8 -9 10q-11 1 -38 -6q-2 -10 -1 -17q5 3 7 3
q1 3 17 2q3 -1 -1 -5q-13 -1 -23 -6q0 -2 -1 -7v-7q2 0 9 3q11 4 22 1q1 -3 -4 -4q-19 -2 -27 -5q1 -38 -41 -50q-4 -1 -5 0q0 1 4 3q32 14 35 38q-4 0 -10 2q-1 0 -1 1q-3 -2 -6 -3q-5 0 -3 4q2 0 4 2q-19 8 -11 17q-6 7 -9 7q-3 -1 -4 0t0 3q3 11 9 14q5 1 12 9q3 1 1 -1
q-18 -16 -11 -23q9 -15 23 -21q2 0 6 1q1 0 2 1v7q1 4 1 6q-10 -4 -21 -3q-5 0 0 2l21 7v17q-10 -3 -16 -6q-1 -3 -8 -1q-5 0 0 2q2 1 7 3q7 3 16 6v16q-6 -3 -9 -4q-6 -2 0 2q4 3 10 6v6q-32 -7 -58 -14q-21 -89 -37 -107q-5 -4 -2 1q23 43 34 105q-12 -3 -27 -8
q-7 -3 -14 -1q-3 1 0 2q9 3 24 6l18 6q11 43 6 55q0 4 5 3q1 -2 4 0q4 2 2 -1q-1 -1 -1 -2l-1 -1q1 -3 4 -3q1 -2 1 -3t-2 -2q-4 4 -13 -45q17 5 45 11q-3 6 -3 11q0 1 -3 11v5q-12 -4 -22 2q-1 1 1 2q11 -2 20 1q-5 14 -6 17q-1 2 1 1q9 -7 12 -14q0 -1 1 -2q15 3 28 7v3
q2 5 2 10t-1 10q-1 1 1 1q7 -1 14 -7v-1q0 -2 -1 -3q-3 0 -4 -5q-2 -3 -2 -7q11 4 13 8q0 1 3 1q7 -2 13 -4q2 -1 5 -1q1 -1 0 -4q-2 -3 -6 -1h-12q-8 -1 -17 -3q-5 -17 -12 -33q24 4 45 6zM171 195q4 4 9 1q7 -3 10 -6q2 -1 2 -3q-1 -2 -3 -2q-41 -2 -90 -25q-7 -3 0 2
q8 4 18 10q6 3 -1 2q-11 -3 -31 -7h-3q-16 -3 -21 0q-3 0 -3 1t3 2q21 0 78 13q22 4 32 12zM142 13q-4 3 1 2q39 -10 55 -26q6 -6 -1 -11q-9 -6 -16 4q-15 18 -39 31zM119 134q3 -21 3 -28q13 2 15 3q4 13 9 32q-8 -3 -27 -7zM109 207q18 -1 31 -14q1 -5 -6 -7q-7 -1 -10 4
q-2 1 -8 2q-2 0 -3 1q-3 -1 -3 0t2 3q3 3 -4 9q-4 3 1 2zM145 106q-2 0 -6 -1h-2q-2 -3 -1 -5l3 1q3 2 6 3t0 2z" />
  </g>

</svg>
