<?xml version="1.0" standalone="no"?>
<!DOCTYPE svg PUBLIC "-//W3C//DTD SVG 1.1//EN" "http://www.w3.org/Graphics/SVG/1.1/DTD/svg11.dtd" >
<svg xmlns="http://www.w3.org/2000/svg" xmlns:xlink="http://www.w3.org/1999/xlink" version="1.1" viewBox="0 0 256 256">
  <g transform="matrix(1 0 0 -1 0 204)">
   <path fill="currentColor"
d="M171 216q-2 1 5 1q7 -1 11 -8q1 -2 -3 -2t-25 -11q-39 -21 -64 -30q-3 0 0 2q38 21 73 45l2 1t1 2zM118 199q-30 -21 -26 -27q0 -5 -4 -4q-1 -1 -4 1q-1 0 -1 1q-6 0 -4 28q0 4 2 1q4 -16 12 -9q14 6 23 10q4 1 2 -1zM175 188q0 -2 6 -4q2 -1 4 -1q2 -2 1 -1q8 -3 6 -6
q0 -3 -4 -3q-22 0 -36 -3q-12 -2 -46 -13q3 -3 15 -4q19 0 16 -9q1 -1 3 1q2 5 4 5q3 -1 8 -2q2 0 5 -1t6 0q2 -1 2 -2q1 -1 0 -3q-1 -3 -6 -2q-11 0 -24 -4q-4 -9 -5 -18q4 1 12 2q7 1 12 3q5 5 8 4q13 -2 21 -5q1 0 1 -3q-1 -5 -4 -3q-17 3 -27 1q-31 -6 -68 -19
q-12 -8 -21 0q-3 1 1 2q2 0 6 1q1 0 2 1q10 3 27 8q7 2 12 4q-1 7 1 15q-6 -3 -13 -6q-7 -6 -20 0q-3 1 0 2q7 0 23 7q6 2 10 4q2 10 -5 13q-3 2 -6 7q-28 -14 -46 -4q-3 0 -3 1t4 2q38 4 97 26q8 1 10 6q3 2 11 1zM196 137q-2 1 1 1q9 -3 20 -9q1 -2 0 -4q-5 -4 -10 3
q-2 1 -6 4zM125 106q6 -1 12 -5q1 -2 0 -2q-3 -3 0 -21q29 4 39 8q4 5 8 5q13 -2 18 -5q1 -2 -1 -4q-3 -2 -5 0q-7 1 -24 -2q-19 -5 -33 -7q2 -15 15 -39q13 20 12 28q-1 2 1 1q4 -3 6 -6v-1q2 -3 0 -5l-8 -12q-5 -8 -7 -12q16 -27 51 -46q8 -3 9 3q4 13 3 34q-1 4 2 1
q6 -19 6 -30v-7q1 -5 2 -8q3 -7 0 -9q-2 -1 -4 2q-8 5 -17 9q-32 17 -54 47q-13 -17 -35 -26q-3 0 0 2q17 11 31 31q-9 15 -18 42q-2 -1 -6 -2q-14 -3 -21 -5q-2 -7 -2 -17q10 6 19 12q2 1 1 -1q-7 -7 -20 -18q-1 -6 -1 -14q-1 -9 -1 -14q-1 -4 -1 -10q-2 -10 -1 -17
q0 -4 -3 -5q-2 -1 -3 3q-1 3 -6 7q-8 4 -16 10q-1 2 1 1l18 -4q6 -1 6 2v18q1 8 1 20q-16 -11 -38 -22q-12 -6 -20 -6q-11 3 -12 7q0 2 3 2q6 -6 26 4q25 12 40 22v18q-9 -3 -34 -11q-18 -7 -31 -3q-2 0 -2 1t2 2q8 -1 28 6q11 3 24 6q7 2 12 4q-1 3 -2 5q-2 1 -1 5
q-13 -6 -25 -1q-3 0 0 2q26 2 38 12q1 2 4 2q8 1 17 1q-2 6 -4 9q-1 3 1 3zM132 77q-2 6 -3 12q-7 0 -18 -5q-8 -4 -15 -5q0 -1 1 -2q1 0 7 -2t5 -4q13 3 23 6z" />
  </g>

</svg>
